# connected low-poly mesh rebuilt from binary STL using vertex clustering
v 151.84858 112.45772 126.17466
v 148.57090 106.35911 123.58776
v 118.15485 183.93354 145.76820
v 117.66057 177.85051 149.74646
v 158.41800 129.59790 99.72170
v 155.70116 129.98129 92.14339
v 166.31012 194.42064 116.56466
v 172.53428 145.48181 3.27615
v 165.57995 153.49185 3.04878
v 157.68092 161.65045 3.19707
v 162.22895 158.27961 4.58946
v 165.66472 145.71175 0.71909
v 149.68195 169.40759 3.48596
v 154.41470 166.52652 4.67763
v 158.67491 162.64981 11.92351
v 166.65030 154.01432 12.09021
v 150.16576 171.01735 11.97894
v 142.08180 170.09152 1.97668
v 171.98432 138.07212 3.86598
v 154.85559 167.05902 12.33684
v 140.66937 175.33440 3.97781
v 162.51548 158.55432 12.32890
v 172.29625 145.61821 12.03106
v 169.96009 150.19459 10.25738
v 157.73878 153.70564 1.12709
v 149.75042 161.71642 1.44814
v 175.32600 137.77388 11.95023
v 141.45048 175.87412 12.14091
v 162.79580 158.93481 20.25422
v 150.31387 171.74017 19.85994
v 155.27833 167.67001 20.18549
v 166.63119 153.73425 19.97291
v 159.26875 162.93238 19.83406
v 157.64842 145.73737 0.73995
v 133.61060 176.13794 3.33468
v 171.67808 144.84398 19.80073
v 187.56553 185.75312 99.48771
v 145.27124 173.46375 10.49091
v 149.74203 153.73014 1.04135
v 186.40527 190.22714 100.95563
v 169.17922 148.72771 21.01529
v 181.94911 191.98074 101.89226
v 133.68467 177.23237 11.98608
v 150.73915 172.25881 27.88269
v 162.76481 159.47860 27.98555
v 175.50334 137.78127 20.09164
v 141.71740 176.50361 19.92810
v 165.64150 153.75675 27.97672
v 159.74060 163.46428 27.88333
v 177.87972 136.20528 18.23792
v 141.70557 161.74829 1.28449
v 155.78083 168.16686 28.16135
v 179.92363 192.82085 106.87842
v 133.68664 169.73143 1.38426
v 125.73762 176.34630 2.97943
v 187.05272 178.91725 97.50492
v 172.07547 130.04398 12.02281
v 165.91518 137.53321 0.53560
v 156.23663 168.69426 36.08680
v 171.11070 143.90024 27.53619
v 149.64583 145.74675 0.73227
v 160.36184 162.81876 36.18603
v 162.17562 158.92709 35.18025
v 168.70525 147.38574 28.56271
v 141.71926 153.70129 0.93866
v 166.54933 129.54494 1.99989
v 151.36291 172.59351 35.82156
v 141.73428 177.28623 28.00023
v 171.86569 138.67560 25.97947
v 146.63850 174.26434 28.57164
v 173.95100 193.93160 107.94644
v 133.71068 161.71607 1.11998
v 170.48905 131.73024 6.18497
v 125.68703 169.72762 0.88023
v 133.66721 177.89428 19.98472
v 164.53272 153.67646 35.93340
v 151.95027 172.87052 43.78589
v 156.40235 169.22162 44.03503
v 186.15895 176.41824 95.39144
v 147.27906 174.51377 36.17042
v 125.70890 177.53815 11.97496
v 175.39614 192.52988 103.06645
v 181.78489 185.49662 100.68201
v 177.03445 184.91683 101.90678
v 179.04827 186.04907 107.86829
v 157.64673 129.71613 0.37131
v 172.73611 129.69636 20.03969
v 157.66970 137.73251 0.51893
v 159.90331 161.78016 44.04988
v 166.93882 146.00404 35.82983
v 133.78747 178.64782 28.04336
v 181.53476 169.80656 94.13680
v 147.89090 174.82180 44.17702
v 141.64210 178.10823 35.97696
v 141.64184 145.68694 0.67817
v 118.84066 174.80790 3.38281
v 125.69367 178.23376 19.99460
v 155.99108 169.44773 51.99597
v 164.58485 121.96614 3.15918
v 152.48568 173.12571 51.57757
v 163.59189 153.32921 43.85736
v 161.79559 158.04244 40.70914
v 141.72595 178.82961 43.99581
v 166.26103 121.81448 11.96208
v 169.46325 126.17329 10.75636
v 133.71795 153.70653 0.83312
v 117.43119 170.02487 0.81926
v 172.29777 192.76656 114.44751
v 133.75499 179.53109 36.00064
v 166.04534 194.32297 108.53078
v 163.99019 146.73966 43.34866
v 158.98996 161.71072 51.98303
v 125.66076 161.75174 0.82349
v 149.68598 137.73359 0.52093
v 178.25667 184.92082 113.64029
v 148.46452 175.14848 52.11416
v 155.72234 169.65972 60.08787
v 133.58582 180.50125 43.95455
v 161.45056 157.04449 46.22448
v 125.74865 179.02120 28.02543
v 169.93194 125.33991 21.90856
v 148.85415 175.51526 60.09960
v 166.70837 121.54632 19.91859
v 125.61184 153.74580 0.69495
v 161.02387 156.29214 52.43166
v 180.95804 178.31541 99.02516
v 117.70215 161.74237 0.41619
v 152.90472 173.35358 59.79298
v 162.82088 152.38965 51.72388
v 157.70330 121.72686 0.23371
v 177.99686 179.54873 107.38303
v 125.64119 179.88826 36.00845
v 178.96594 164.04976 93.21769
v 158.60833 161.65259 60.01956
v 134.26354 181.97478 54.31548
v 138.53024 182.01954 53.67492
v 133.23543 181.38499 50.56869
v 162.95214 198.06682 114.04047
v 155.45414 169.82250 68.02689
v 141.71957 137.70770 0.48723
v 175.93546 169.61206 99.98077
v 149.34420 175.82032 68.03384
v 110.66223 168.37509 2.46638
v 142.92587 179.57178 59.77047
v 162.10209 116.62469 3.57765
v 165.02307 121.97637 27.63161
v 158.59230 198.48210 116.67541
v 175.38537 176.62541 108.88321
v 138.78005 182.60876 60.18253
v 158.18398 161.67835 67.93144
v 125.62818 180.84521 43.98909
v 162.12470 152.23477 59.14078
v 162.20521 148.49959 51.02787
v 149.72502 121.71982 0.33027
v 160.81225 154.60893 60.50248
v 163.78684 138.45663 34.67088
v 160.18242 136.27022 37.67988
v 141.70365 129.66911 0.40506
v 173.90439 161.69390 99.93498
v 149.74782 176.21662 76.09703
v 158.64301 113.23350 2.02462
v 174.54845 169.81485 108.42146
v 175.45350 161.38881 93.73425
v 153.79861 173.83464 76.40311
v 143.37011 179.99665 67.96480
v 155.20675 169.66658 75.97457
v 173.54133 178.13663 114.55340
v 162.31770 116.55657 12.14559
v 133.64674 182.76997 59.96060
v 160.39710 144.66814 52.32655
v 161.02652 143.25485 45.65234
v 156.50085 194.04161 115.77126
v 133.80998 184.02382 68.11700
v 117.73947 153.75273 0.40055
v 158.93032 137.65947 44.07067
v 109.47119 161.97382 0.32925
v 162.63158 116.31480 20.16260
v 126.73279 181.46325 50.01499
v 150.12229 176.99423 84.22945
v 133.64632 129.70879 0.40751
v 124.77888 182.03819 53.42528
v 125.73684 145.75409 0.51466
v 160.26401 153.81043 68.06409
v 159.14999 145.73318 60.07198
v 174.49327 154.01290 94.20150
v 163.97501 193.13738 122.64239
v 157.26962 193.73380 123.97690
v 148.71380 191.61287 100.67010
v 125.64316 182.78971 59.94997
v 155.68571 184.47908 100.96229
v 155.44558 108.25406 3.32227
v 151.69818 187.66364 98.66003
v 133.71590 137.75662 0.46234
v 149.94183 193.72554 108.04315
v 148.77107 184.93228 92.94575
v 157.67872 193.38229 110.17918
v 157.67804 185.72270 108.22584
v 156.96011 198.51419 122.64710
v 173.41919 162.11381 107.74433
v 158.12646 177.75462 99.96970
v 151.37900 179.11871 90.02784
v 159.89591 112.33511 11.97154
v 141.65822 194.32352 100.02254
v 139.89138 183.35812 76.14916
v 141.09014 184.56260 84.57008
v 133.87291 185.22199 76.00765
v 160.69056 178.00889 107.68367
v 155.25195 176.65482 93.28398
v 144.75267 180.96167 82.67765
v 162.82223 116.18268 26.86343
v 142.70965 187.41080 90.28524
v 140.83681 191.12379 93.75583
v 157.12567 137.68794 51.93460
v 165.06592 185.90162 123.26505
v 159.16793 153.87094 75.96070
v 141.71759 121.75092 0.38469
v 154.89045 169.38262 84.06403
v 149.69667 113.74839 0.34874
v 133.84795 187.40778 83.79892
v 109.69832 153.80966 0.12148
v 150.05837 195.77955 116.23013
v 166.20005 185.33042 118.12694
v 157.44929 185.66112 116.06297
v 156.99892 169.68139 92.06069
v 125.63537 183.84571 67.99892
v 159.57933 112.18146 19.97955
v 141.70286 113.74480 0.39573
v 149.81576 105.32602 2.21795
v 142.94584 196.57207 107.45227
v 160.57763 179.37762 116.37046
v 157.29584 145.72916 68.04584
v 160.26292 169.94089 99.80977
v 158.83384 129.53005 36.63858
v 158.06291 193.16936 131.48024
v 144.62896 197.34054 115.22071
v 133.86885 192.38403 92.11647
v 133.72042 121.72690 0.39676
v 159.36524 112.79976 28.33415
v 150.15369 196.26979 123.30818
v 161.38539 171.72946 105.50323
v 157.27320 161.72740 84.09702
v 155.46898 138.11590 59.52273
v 117.69279 145.79215 0.37438
v 139.39856 198.41821 109.17461
v 165.90109 177.93690 123.73420
v 120.71449 182.67686 60.72646
v 158.36625 153.69081 84.08931
v 165.54456 177.10669 116.70354
v 159.19409 161.78712 91.99654
v 157.45399 185.93802 124.41484
v 133.66861 200.21162 107.97295
v 134.28282 196.31182 98.80383
v 173.31698 146.21294 95.02693
v 125.71056 129.68911 0.37982
v 140.78030 198.87918 116.19283
v 155.46649 130.44736 43.71281
v 162.70095 184.65837 129.92589
v 125.68242 185.00448 76.05293
v 155.42896 108.38883 11.94957
v 164.19251 169.01158 109.39331
v 161.07671 161.75535 98.58569
v 150.63477 104.37000 11.95783
v 144.84733 197.51929 125.13814
v 161.82595 166.54316 103.54917
v 171.05958 155.52490 106.56171
v 171.85890 153.87495 99.26846
v 133.70730 201.47097 115.94390
v 141.48925 198.97045 123.83374
v 155.73186 145.89589 76.13250
v 165.49832 169.95179 115.29521
v 162.77144 161.01714 102.61212
v 125.76066 187.21108 83.80863
v 117.63969 137.76551 0.34660
v 125.69076 192.28954 92.17042
v 171.63451 145.26979 98.26805
v 155.21374 108.34925 20.03608
v 163.83088 177.59900 131.73752
v 159.76909 178.48795 124.43320
v 164.62973 169.50786 124.65779
v 159.39936 153.71303 92.14599
v 154.67494 140.06343 67.16082
v 109.68171 145.74106 0.15597
v 156.13076 190.98223 137.33558
v 164.62171 161.49316 108.70917
v 101.33670 154.05829 0.71553
v 154.50110 132.14435 51.05029
v 109.67296 137.68419 0.22008
v 159.05726 185.60254 131.78785
v 118.67423 183.95662 76.13855
v 153.12565 126.80876 45.55386
v 160.89255 153.44469 99.50283
v 164.36108 169.37570 131.71463
v 123.16687 189.61850 88.13229
v 150.92758 121.55845 44.04617
v 165.52084 162.05492 115.12160
v 166.66315 153.32542 100.83277
v 156.36189 145.63906 84.05292
v 155.32962 108.11764 27.99407
v 146.61782 100.99860 3.76611
v 171.40152 139.36437 99.35806
v 172.36303 140.74089 95.56068
v 151.04185 104.30691 19.93270
v 133.70534 201.23719 123.77476
v 133.66261 113.72560 0.42832
v 158.79283 179.97270 130.48048
v 152.95013 134.83061 61.97051
v 152.10694 128.48475 52.59250
v 157.27162 185.22587 139.14921
v 164.65592 161.66162 124.95644
v 141.67432 105.76261 0.43705
v 158.62316 177.73854 140.46432
v 146.79421 100.67831 12.14706
v 142.02038 98.58647 3.27403
v 153.88871 141.27579 76.49753
v 161.36142 170.57551 126.80184
v 149.79423 129.73350 59.92390
v 152.11049 136.36435 68.43460
v 151.35533 104.07351 28.15334
v 101.71165 145.78376 0.28204
v 158.62661 145.67473 91.84223
v 133.71071 105.71944 0.49219
v 125.69290 121.69422 0.39277
v 164.44632 163.12029 131.00160
v 168.08631 146.00926 101.13405
v 153.43547 142.15697 77.20832
v 151.90366 137.51397 76.29335
v 164.50686 153.38826 108.14716
v 165.02311 153.62647 116.20660
v 117.71927 129.72703 0.34594
v 160.36397 168.73281 132.04299
v 160.34731 145.68602 100.01220
v 109.71036 129.74477 0.27766
v 142.32841 97.41065 11.95254
v 154.85467 138.31344 84.67073
v 147.07270 100.35841 20.09681
v 125.70126 113.73306 0.45726
v 168.50213 139.02235 102.17806
v 117.73894 113.73658 0.37776
v 125.71761 105.70998 0.55702
v 164.11993 155.02288 122.91842
v 151.02028 112.89343 37.53671
v 157.38668 137.61805 91.76938
v 147.87440 115.19818 42.52391
v 133.60638 97.96980 2.98088
v 148.16548 130.04348 67.89208
v 163.81961 146.73034 114.13019
v 109.74358 121.80676 0.26478
v 157.63703 169.94047 139.73838
v 167.19730 138.88800 106.80442
v 117.73221 121.74288 0.36942
v 164.99758 145.97229 108.27983
v 153.16484 135.68347 81.55357
v 159.60835 137.72936 99.97749
v 146.20466 125.00253 58.66013
v 148.57918 123.04759 51.24443
v 148.96013 106.28454 35.14981
v 144.16311 119.91194 52.98421
v 142.42719 96.97630 19.94356
v 149.11049 129.63888 76.02095
v 147.39991 100.10031 28.21180
v 160.22426 161.65295 132.39862
v 160.66913 153.24127 124.44723
v 161.32746 151.12912 118.69325
v 133.59951 96.58987 11.95299
v 154.09832 132.21773 86.88817
v 152.14530 129.34297 83.58988
v 142.47774 96.77272 28.07891
v 155.36414 176.65926 144.78748
v 143.28276 121.33128 60.21602
v 161.09036 145.36953 117.16825
v 117.70391 105.71764 0.48508
v 157.06847 161.74142 139.93414
v 160.65661 137.76754 108.03441
v 142.39522 121.62049 68.16233
v 140.46694 116.12597 51.72377
v 101.69459 129.72338 0.30128
v 146.86834 100.28650 32.92551
v 161.29317 154.01822 131.18600
v 160.14872 145.76239 124.08914
v 125.88058 97.17760 2.85271
v 109.66580 113.75002 0.22270
v 161.96601 153.59015 133.88496
v 133.47525 96.38195 19.96584
v 150.59011 169.62941 147.97155
v 158.89550 153.91761 140.09037
v 160.29218 137.73160 115.95415
v 125.95554 95.80993 11.96518
v 160.16846 145.79110 132.03166
v 161.71550 149.66222 133.43686
v 153.36186 126.95240 88.86246
v 139.49735 116.84335 59.67016
v 93.09492 129.45922 1.91413
v 159.48310 129.80041 107.99959
v 148.66287 122.16822 84.37153
v 143.37139 121.01106 75.66655
v 133.65479 96.26030 28.30205
v 109.75603 105.35570 2.13528
v 118.14101 99.27336 3.41152
v 156.45311 121.78035 99.95060
v 154.53257 123.46415 94.22011
v 159.74424 129.73912 116.00928
v 151.41354 120.90992 91.14046
v 158.40896 137.59935 124.11083
v 133.89305 112.93963 52.02754
v 100.82590 113.29213 1.16679
v 135.07250 111.48935 44.89952
v 158.63258 121.73423 107.87431
v 138.82928 116.96839 68.27849
v 158.61481 145.27663 140.36209
v 125.91432 96.46277 28.20210
v 102.48141 107.99690 3.52919
v 132.36797 108.36699 42.55316
v 126.01838 96.03755 20.03586
v 157.20799 129.63441 124.14071
v 133.52983 114.02500 60.07261
v 133.59247 114.84255 67.84920
v 157.66106 137.66280 131.99362
v 139.63963 116.39478 76.35554
v 130.01177 109.38972 49.44649
v 126.03441 107.26882 43.95989
v 159.83731 121.42817 116.02932
v 127.77300 109.09910 50.04763
v 148.30831 114.52046 92.98027
v 151.69530 112.67957 98.80056
v 155.48922 145.23182 147.21195
v 141.77601 114.79386 84.42873
v 156.12090 113.25340 107.77202
v 154.85509 115.19116 101.65602
v 156.44669 138.15147 139.38133
v 142.88266 111.73713 90.07805
v 101.19396 193.37405 124.39641
v 94.03463 192.59256 123.73631
v 133.57256 114.11471 75.89213
v 93.35031 190.91820 118.07661
v 93.03219 187.21587 116.44731
v 155.35389 131.95003 137.97189
v 155.36453 130.18345 131.74576
v 151.04616 136.80328 142.45390
v 156.69586 113.83648 115.96279
v 85.58759 191.11976 116.09819
v 149.88105 138.97486 147.83741
v 153.55350 109.87397 105.49593
v 150.75136 105.13918 107.45125
v 148.64452 106.59208 100.76990
v 133.55345 111.92106 84.09122
v 154.43358 108.09419 108.99169
v 85.43949 186.77823 116.04876
v 125.38995 114.10569 68.01043
v 141.73971 107.32772 93.80006
v 150.25936 121.53834 131.87718
v 93.22242 186.36668 124.34915
v 149.14535 146.06140 154.08315
v 125.57673 113.84697 76.02203
v 83.32336 187.73741 111.03514
v 93.21586 185.49365 131.29461
v 78.68202 190.05896 110.74105
v 135.37106 110.36084 88.70643
v 153.84124 109.26644 112.40448
v 155.75550 114.10932 122.91530
v 143.12161 103.74219 98.10139
v 125.69747 111.93152 84.01032
v 76.60025 186.35378 108.46406
v 133.47481 106.28850 92.37728
v 85.93193 184.80831 123.67963
v 107.89959 129.04531 75.90562
v 151.17676 106.04699 116.27105
v 100.67410 103.92459 28.36268
v 96.18930 107.64126 27.16249
v 111.29620 123.69260 76.79670
v 142.22749 145.06403 157.26575
v 116.02230 120.04058 75.76962
v 120.01567 115.88180 76.27264
v 71.80897 185.89862 107.10527
v 117.77779 114.31565 84.13739
v 125.82914 105.88651 92.39177
v 92.40045 178.05492 131.39167
v 141.94758 136.30830 148.46849
v 68.86860 183.79105 102.23933
v 148.97711 97.48676 115.40995
v 147.69937 99.52947 109.00516
v 141.43769 99.08605 101.56996
v 141.66060 139.45531 153.74253
v 75.86418 177.43869 107.69693
v 85.61638 178.00561 123.93321
v 78.39616 185.46303 115.33510
v 114.71402 118.36574 80.96185
v 106.09070 126.34191 80.89963
v 109.27395 121.33592 83.61533
v 75.22344 176.15918 102.90373
v 77.31149 177.85085 116.41461
v 87.56074 176.92039 131.46318
v 124.42262 110.23779 88.55970
v 69.32158 177.69885 100.51432
v 135.18732 102.36917 96.62266
v 76.12313 169.25350 101.45879
v 139.69446 130.51194 146.36111
v 143.23795 121.77784 140.90130
v 143.36001 128.68397 142.45449
v 86.05909 169.56318 117.38270
v 85.23930 176.18125 117.70292
v 143.68473 96.46067 108.03872
v 116.68345 111.22180 89.43156
v 70.39860 170.14875 98.28559
v 86.43734 169.76142 123.51200
v 147.76639 113.96308 131.55964
v 91.00910 171.48731 130.06319
v 112.44397 116.57757 86.17450
v 146.07991 113.43657 137.82113
v 77.19945 169.75035 107.90881
v 77.36119 161.62585 99.85458
v 146.58309 98.33712 121.71380
v 133.65488 97.87479 100.32555
v 86.38555 170.65562 131.10637
v 78.28890 170.06476 115.68340
v 105.01435 124.37920 86.09036
v 117.61249 106.78289 93.30135
v 125.77086 97.64201 99.97419
v 70.07862 167.81402 95.70186
v 110.01026 114.03024 92.23487
v 86.34121 161.55123 116.78821
v 103.33336 122.05504 92.38749
v 78.83018 154.14894 98.91867
v 146.75189 91.46881 117.16162
v 142.21416 89.01085 114.93043
v 145.54853 103.44943 126.55657
v 145.96289 105.62436 139.38002
v 77.19591 154.10633 95.54543
v 107.33150 119.39512 89.79415
v 78.75985 161.80030 107.83771
v 82.70967 151.97969 101.26162
v 140.63433 90.82302 109.25001
v 78.92318 162.41722 114.38095
v 101.11130 169.28763 148.10240
v 83.74481 153.56717 108.08649
v 145.40893 97.19433 125.45128
v 86.87194 154.32589 116.08490
v 136.39372 94.03225 104.25908
v 84.24455 145.59084 101.05049
v 95.77829 169.15822 146.29806
v 79.69862 146.16835 97.66547
v 133.78770 89.62102 107.44424
v 93.77175 161.73208 139.89976
v 86.54955 145.52150 107.92243
v 91.37973 160.31714 133.16802
v 78.86298 148.94663 95.88354
v 144.93698 89.49789 124.10360
v 94.73624 164.90177 144.54647
v 145.83363 106.22024 132.64965
v 140.10026 113.51180 147.57608
v 130.94410 93.40701 103.63015
v 145.87929 97.47850 132.37088
v 112.59799 108.48444 94.79274
v 116.64496 102.95003 97.16156
v 117.71758 98.21201 100.99806
v 87.77448 146.49010 115.70894
v 127.06068 93.17135 103.51408
v 90.61981 144.96868 115.76307
v 104.84215 116.72584 95.00284
v 91.32676 154.59495 132.40201
v 135.19183 122.06100 150.41954
v 145.99960 98.38998 138.25389
v 103.24853 113.90787 100.22761
v 107.21068 111.33837 97.54463
v 109.66408 105.76248 100.27158
v 125.47572 89.39451 106.92507
v 145.96438 90.47646 132.44750
v 84.41357 137.56523 100.68188
v 136.98112 115.99815 151.27492
v 87.76501 137.54409 107.86796
v 139.79140 83.77797 117.03754
v 93.92152 154.34929 138.72549
v 88.59836 147.80976 123.29313
v 142.29130 81.46045 123.58266
v 86.97228 153.50670 124.13512
v 87.95834 153.30004 132.07551
v 92.25362 138.67375 115.45235
v 132.35674 84.67593 111.13137
v 88.63322 155.86356 137.03620
v 83.89200 132.65228 102.05796
v 112.32404 100.24754 102.72977
v 88.46675 137.67900 114.32786
v 145.24870 97.04275 141.89679
v 134.83762 80.88010 115.87681
v 86.73054 131.68143 107.52535
v 109.93121 137.45134 148.47224
v 144.79488 89.49693 140.18749
v 115.59038 94.68453 105.26757
v 145.50852 87.97959 130.83570
v 107.77076 104.50333 106.49166
v 142.16155 97.78922 148.10282
v 117.41645 89.86278 108.37766
v 125.88877 84.16827 110.86899
v 101.13448 137.83280 141.71026
v 103.72615 106.47798 107.85304
v 101.24549 112.60140 107.44103
v 143.38345 81.68636 131.95020
v 136.78800 79.36490 121.93733
v 110.46544 97.79279 108.75045
v 102.21751 139.82712 147.54994
v 125.54378 80.05112 114.14027
v 139.61311 76.54259 126.00419
v 142.51331 81.82209 139.99580
v 139.78906 74.92200 131.91093
v 132.53900 77.13014 118.96709
v 140.40931 82.30961 147.53412
v 134.07725 74.80911 124.50238
v 119.50887 85.06840 111.43578
v 117.26351 81.91054 116.09576
v 114.87293 88.72254 114.08022
v 126.06824 76.64326 118.15533
v 141.87661 89.75963 148.13324
v 133.82183 72.17748 131.65133
v 139.03689 75.49068 139.54192
v 125.73710 73.21835 124.03775
v 138.58135 89.16152 153.33112
v 119.41781 77.22575 119.25507
v 138.36891 76.70635 145.32525
v 109.91131 89.88286 115.49687
v 134.01869 71.66420 139.96366
v 134.94102 80.49436 156.21038
v 137.90495 84.20656 154.86111
v 117.90938 74.98656 124.73213
v 135.83385 80.06481 150.68597
v 133.27818 74.78259 147.94648
v 111.93769 83.92713 118.20024
v 125.71720 71.55581 132.12493
v 115.84534 79.14137 121.65409
v 110.67122 81.45304 123.23066
v 125.68518 71.64285 139.82374
v 133.05814 76.15956 155.20356
v 117.67201 72.24732 131.72707
v 127.33702 78.37936 156.12394
v 112.17055 76.55068 126.29072
v 125.80119 73.00702 148.05280
v 125.95688 75.11485 156.07403
v 117.89728 72.34382 140.01134
v 118.72117 75.11596 147.88861
v 117.34817 79.79279 156.01765
v 118.63867 75.95242 154.16767
v 182.29162 175.58094 95.26137
v 180.53424 171.56705 97.11009
v 170.44797 130.80259 24.70138
v 176.21633 177.02431 100.31428
v 167.52040 136.94887 29.63570
v 177.45207 174.78098 95.58917
v 173.55282 185.97136 115.92332
v 176.24390 186.30814 108.68979
v 118.38334 175.08523 12.08920
v 165.41839 197.89960 111.46858
v 176.15802 168.81611 94.45566
v 166.20809 129.58103 28.58264
v 117.99842 175.49131 20.01508
v 117.62408 176.00634 28.02232
v 177.80362 180.88688 113.68959
v 170.02649 187.35690 120.20152
v 117.67850 176.81033 36.01144
v 109.91375 170.98360 20.04441
v 109.82121 169.69460 12.07344
v 117.65827 177.77735 44.06650
v 102.69415 160.89487 2.20008
v 151.08778 198.45593 124.35279
v 117.63883 178.96395 51.94220
v 172.58069 170.53180 113.25958
v 161.01412 119.89890 31.34686
v 157.40238 121.95050 35.76658
v 113.25737 173.97623 29.30440
v 109.54185 171.70450 27.84771
v 121.35177 181.98645 54.51932
v 112.57036 174.34752 36.43672
v 101.98262 161.88624 12.03509
v 108.69034 172.12915 35.81970
v 149.59194 194.31372 131.93267
v 119.73159 183.31189 68.32032
v 132.97324 198.49508 102.38278
v 126.29871 198.32519 102.81273
v 125.44784 196.15364 98.88715
v 170.75150 162.35922 112.67742
v 153.96150 124.72280 40.22367
v 125.73284 200.26724 108.02103
v 111.69690 174.68469 44.36673
v 104.13733 167.25093 28.41806
v 110.86253 175.14079 52.26227
v 101.29208 161.96188 19.94733
v 95.33937 152.51661 2.69447
v 115.60473 180.36286 67.55425
v 125.83385 202.41777 115.90991
v 156.05259 114.64419 34.12527
v 149.76895 190.76409 137.42558
v 116.56711 179.61344 59.81981
v 100.61497 161.74320 27.93362
v 153.15922 119.57034 39.46811
v 109.84622 175.61982 60.20747
v 98.39203 156.67464 11.76600
v 118.08638 191.67958 92.93990
v 117.61391 195.62226 99.94658
v 103.77062 168.00978 36.22085
v 139.02897 198.09096 128.77122
v 141.90786 195.15956 132.25188
v 132.99784 198.76333 130.28747
v 125.64125 202.13993 123.78879
v 120.57672 197.88058 103.58926
v 117.86281 199.24980 108.06811
v 117.80741 185.81380 84.15666
v 95.25109 152.54322 11.99963
v 101.65072 137.72467 0.30948
v 107.74033 172.50035 43.64714
v 103.75624 169.09641 44.29414
v 109.65526 176.61533 67.91166
v 93.16144 145.94879 1.91601
v 100.10481 161.68861 36.03397
v 162.22896 169.06403 136.78315
v 106.84400 172.98776 51.51198
v 149.90997 186.17899 141.59878
v 117.74755 201.00442 115.92098
v 134.44663 196.45734 133.97894
v 103.45597 169.70189 52.11149
v 95.51648 152.87968 20.00960
v 98.18969 156.98735 19.41802
v 125.69458 199.19955 131.50733
v 109.69912 177.91548 75.91290
v 100.02102 161.79714 43.98647
v 141.46256 191.51603 137.97033
v 117.84953 200.97839 123.76661
v 111.53330 183.30911 85.94571
v 161.24558 158.73969 126.63726
v 108.90654 179.64829 83.06975
v 103.09383 170.24765 60.00617
v 112.46711 198.50277 109.02927
v 110.10570 192.83030 100.38390
v 112.39502 190.54542 94.70038
v 97.97004 157.37168 27.24150
v 141.86114 113.85699 43.96395
v 93.66860 137.73698 0.86568
v 141.91549 187.40200 141.84622
v 95.62541 153.36167 28.11109
v 91.32505 146.18807 12.10509
v 133.54143 192.97772 138.72364
v 111.67340 199.07174 116.16114
v 109.43434 186.17609 91.65280
v 125.95615 197.42192 135.19870
v 108.92167 195.71972 107.34229
v 102.13271 169.81949 67.87016
v 99.84875 161.85574 52.04458
v 104.80630 174.20283 68.67938
v 89.17911 142.90307 3.53941
v 141.81339 105.50683 37.46216
v 147.52180 182.78090 144.44498
v 149.54950 177.60932 146.18897
v 107.18974 188.70446 97.37469
v 104.45776 174.96360 76.09850
v 111.35674 199.08430 123.28658
v 134.14262 188.21959 142.72498
v 119.17014 198.78467 129.82560
v 141.63041 99.66423 33.48855
v 141.27733 183.32371 145.37596
v 91.65850 145.64082 20.05529
v 87.47648 137.22658 3.78954
v 101.46519 169.72096 76.00624
v 95.98463 153.63558 35.93792
v 126.09655 193.91163 139.10076
v 139.39771 109.23159 40.27937
v 99.48232 161.73366 59.85801
v 117.14271 196.24667 133.27373
v 103.94640 183.54189 93.70540
v 92.09045 145.47033 28.19521
v 101.63231 186.09727 99.89828
v 103.85598 176.14739 84.69474
v 96.20563 153.18306 43.94705
v 101.68405 121.73258 0.22155
v 141.73923 177.78054 148.46321
v 154.00717 168.66045 144.51188
v 97.97110 157.10022 44.67140
v 107.68931 196.57544 115.60313
v 117.86574 192.68143 138.54913
v 104.55395 190.58220 102.76834
v 100.94034 178.20644 91.50761
v 88.59818 131.83691 5.18178
v 102.68328 191.87944 108.32696
v 86.81280 136.79910 12.05119
v 89.47803 142.23301 11.08039
v 107.78741 196.74368 124.56739
v 109.77022 194.34491 131.84366
v 133.87214 104.55837 37.69912
v 125.88948 188.87943 143.20244
v 94.80050 121.97893 2.89680
v 92.85990 145.37455 35.96269
v 133.39178 184.25583 146.20367
v 154.22202 161.46930 144.72001
v 100.84254 169.83849 84.63475
v 99.13228 161.68402 68.00225
v 133.63515 99.65564 33.68949
v 96.15365 152.66948 52.15859
v 98.03893 156.94251 51.91786
v 151.19861 161.82127 148.79626
v 117.58401 98.11680 11.94007
v 101.76211 192.99657 116.00505
v 90.42146 136.14165 22.21219
v 97.99535 157.10740 59.78724
v 88.28133 137.74463 19.44790
v 96.83852 115.83091 4.11273
v 99.18406 188.51116 106.41817
v 134.05323 178.22177 150.22908
v 126.10504 184.96721 146.47566
v 142.25691 171.29892 150.85707
v 155.26857 152.99807 146.26541
v 94.65164 145.96732 44.06680
v 96.09275 152.75083 59.98616
v 98.81774 162.01101 75.93567
v 92.09963 137.51317 28.31444
v 87.37282 129.80531 12.03078
v 89.26738 139.87103 25.49770
v 117.30095 187.82336 142.50641
v 98.50547 180.72333 97.11774
v 95.56807 137.70053 35.78091
v 117.73246 98.13943 19.91875
v 97.88527 157.31064 67.62868
v 95.86177 146.14235 51.85449
v 126.02432 99.64945 34.30451
v 111.81902 100.41949 12.72140
v 92.33579 121.61222 11.89492
v 110.69474 191.02009 137.72928
v 96.84934 139.37314 43.28117
v 90.60946 129.63721 22.08549
v 146.40058 166.49030 152.42704
v 101.74963 192.10781 131.29209
v 125.32549 103.18713 38.20841
v 95.10086 185.04005 108.29667
v 93.63213 129.66678 28.05994
v 98.88980 170.65278 89.51834
v 147.28084 160.92869 153.15849
v 88.61358 129.70287 18.06080
v 125.84167 179.18650 150.74792
v 141.87712 161.64608 155.98110
v 98.31616 129.66514 38.13904
v 96.58815 146.69864 59.32370
v 97.86703 134.31116 39.23236
v 98.54062 163.04947 84.12036
v 96.35072 153.07700 68.17834
v 96.44073 153.29425 75.93077
v 101.40268 106.82210 12.02174
v 125.63480 112.56611 59.94508
v 125.11003 110.68153 53.05144
v 109.94245 100.15001 20.15375
v 98.31086 135.66607 44.71641
v 100.58398 129.39560 44.00035
v 109.24464 186.97598 141.27082
v 96.84034 129.88577 34.12106
v 120.17719 108.31721 41.91187
v 117.67967 98.40812 28.39180
v 94.58924 177.43279 99.99643
v 108.05947 103.10114 11.66613
v 152.21143 154.67136 149.64814
v 117.25407 112.79303 44.77836
v 156.52425 121.81939 123.47307
v 117.34824 105.22870 36.40189
v 95.96963 114.06038 12.16908
v 141.01070 167.65298 153.19662
v 95.86184 169.25387 93.23958
v 99.09396 137.14361 52.27076
v 118.48097 100.55390 32.88001
v 97.39133 140.90492 50.60362
v 88.99593 123.38789 18.06025
v 110.48812 115.36760 41.94223
v 94.22390 121.83213 27.97266
v 118.51462 114.46735 51.75763
v 108.90181 120.39099 44.97863
v 131.61099 174.62555 152.37135
v 133.61210 169.41441 154.12902
v 106.60514 102.33697 17.88080
v 148.82257 153.28391 154.11380
v 92.89526 169.77708 99.99044
v 97.27280 148.57260 67.39160
v 103.04872 122.77911 42.01585
v 90.90343 120.48147 19.88752
v 93.98130 114.00222 20.20935
v 98.37023 143.36592 61.30860
v 101.15905 137.62526 60.28851
v 106.63387 127.12037 53.07229
v 110.33326 122.04833 51.77329
v 97.10939 121.86873 33.51406
v 101.81723 104.75781 20.05955
v 126.27570 175.33022 152.62559
v 97.53619 158.06528 77.75717
v 97.15068 159.36645 85.34364
v 96.28465 153.45533 84.32031
v 103.23363 130.68703 51.73794
v 108.98017 111.62105 38.88678
v 94.87673 161.76220 91.83161
v 98.80419 144.70906 68.30832
v 104.66348 132.15068 59.51199
v 119.66449 115.64268 59.76720
v 115.79990 119.77886 60.41557
v 94.49148 191.15051 130.40042
v 107.39943 128.27779 60.30468
v 99.53303 120.86882 37.92605
v 91.62971 177.46823 107.72393
v 141.75197 153.91173 157.35405
v 102.16895 137.48705 68.00528
v 111.22609 123.30533 59.78573
v 109.62873 105.82917 35.08798
v 111.96716 101.30071 32.28149
v 101.63092 113.96197 35.95807
v 109.70824 100.23931 28.27489
v 94.95209 113.31123 27.65591
v 99.12368 145.42089 76.03548
v 97.52819 149.25382 75.85355
v 116.36697 120.42754 68.14522
v 120.35765 116.31130 68.46036
v 96.89845 108.19456 20.56007
v 126.00361 169.51906 155.01963
v 101.54038 186.23920 139.95120
v 108.12055 129.33108 68.30458
v 112.05314 124.26345 67.91809
v 110.68752 182.89168 144.82000
v 133.77690 161.81651 157.30380
v 105.40100 101.41156 23.16485
v 100.21665 189.35465 135.42119
v 153.00204 145.27560 151.29644
v 86.85966 190.53123 123.42294
v 105.28204 133.21289 67.82810
v 149.65221 129.84907 139.97638
v 153.24475 121.25638 127.44783
v 153.16552 110.17206 115.56804
v 103.49968 106.46945 33.74518
v 104.51730 101.40180 28.18150
v 109.62739 177.79635 147.86839
v 102.79051 137.19256 76.32396
v 97.27941 114.95876 33.05212
v 98.90844 145.06594 82.85466
v 120.52133 174.10118 152.26459
v 117.93684 169.47700 153.80234
v 92.08649 161.69998 99.91044
v 94.38756 153.79118 91.85988
v 105.03547 132.14011 78.15509
v 90.73240 178.84443 116.39511
v 80.23777 190.21996 114.48117
v 97.13207 146.83978 86.11895
v 93.71023 184.67995 138.81166
v 100.25498 137.79817 83.73788
v 90.53051 169.77083 106.96669
v 88.45687 185.40424 130.03641
v 91.90639 177.76019 124.08488
v 147.62846 140.19274 152.38466
v 125.66414 161.70279 157.05196
v 133.66679 153.48480 158.51000
v 95.51006 145.65916 91.88075
v 144.22769 134.65868 143.62705
v 102.05501 177.34889 146.32728
v 89.43932 169.61087 110.92987
v 92.45052 153.80335 99.96325
v 109.06287 170.76724 150.64654
v 147.32839 122.48162 137.18812
v 103.26915 129.95243 84.34452
v 80.61811 183.87914 121.50143
v 97.62615 141.23614 87.62533
v 133.74432 145.61972 157.05341
v 73.26175 183.32347 112.98206
v 90.31065 171.76269 125.55513
v 72.85187 179.87011 106.58498
v 90.34922 161.43095 107.15157
v 99.06265 181.07512 143.66513
v 117.65628 161.71190 156.32722
v 92.46142 178.49453 140.41618
v 86.87641 161.10724 110.92617
v 93.47528 145.72490 99.90703
v 90.66024 153.75441 107.80022
v 125.72942 153.69294 157.98651
v 79.65971 178.53916 121.16231
v 73.55734 180.84847 113.90178
v 98.29679 135.65185 89.37087
v 100.09566 129.42644 91.70766
v 95.83666 176.07009 145.52808
v 96.55855 138.10250 92.50884
v 133.65604 138.04579 154.17760
v 143.89365 114.02306 141.53215
v 125.81682 145.78541 156.19399
v 89.28611 176.66083 136.61867
v 109.72183 161.81246 154.51174
v 111.19085 167.50735 152.92384
v 117.62085 153.52344 157.71590
v 85.93312 162.38771 123.13510
v 134.23656 129.53825 150.29643
v 89.94588 152.25345 114.76425
v 139.23994 121.47970 146.37950
v 71.90069 162.59820 96.96613
v 72.42988 163.10997 95.58778
v 105.81321 165.48430 151.95549
v 94.81136 137.62010 99.94371
v 74.74924 159.40744 95.49865
v 91.66021 145.68244 107.87977
v 125.78854 137.76532 153.95070
v 101.82163 162.16936 148.04159
v 88.73893 169.70816 137.44236
v 98.42172 162.06670 142.89800
v 110.19684 154.19387 155.83926
v 91.84067 169.71501 141.57069
v 105.19295 160.01977 152.35970
v 96.81514 130.84018 100.24858
v 145.10182 106.47804 143.11942
v 117.62300 145.53026 156.20190
v 85.88290 162.01204 131.89359
v 79.33978 154.22059 107.22194
v 93.68618 138.04302 107.56875
v 141.63039 105.70778 148.01737
v 100.06504 121.73413 99.45142
v 88.77185 161.61470 137.60049
v 98.29944 127.35443 98.27759
v 101.13545 154.18819 148.11339
v 127.02093 130.62735 152.43175
v 104.42002 153.38142 153.13853
v 125.32793 129.50716 151.45827
v 96.31564 129.95864 107.75538
v 92.09600 146.24820 123.50430
v 109.61312 145.03925 155.72372
v 90.99359 151.01274 126.20662
v 117.95151 139.01523 153.54134
v 79.96077 155.45889 113.94291
v 93.61811 145.54437 132.22050
v 80.64504 138.36872 98.13438
v 95.78109 129.79852 115.42733
v 96.94270 122.64089 108.70327
v 97.50234 125.16183 102.97005
v 131.03543 120.20726 152.47954
v 115.59994 135.09055 149.15600
v 96.33474 137.40026 124.47486
v 117.04731 130.38767 148.49480
v 126.78739 121.51332 153.04273
v 133.70366 113.33112 153.26423
v 98.37131 119.78436 106.60740
v 96.55939 137.89718 131.87038
v 108.70619 141.98307 151.90356
v 109.29448 134.65405 143.18453
v 94.48421 146.04158 139.57090
v 109.61636 129.51945 141.52791
v 103.87695 146.09618 153.30472
v 110.66236 139.95871 153.12356
v 100.04787 145.45223 149.10560
v 113.12425 131.10261 144.22432
v 96.09150 121.38965 116.05639
v 81.41111 133.46880 100.10648
v 138.16658 104.97987 152.55748
v 99.02966 129.55792 125.67561
v 96.67601 130.16645 121.85403
v 104.98764 108.48567 102.91051
v 116.91135 121.79623 149.57024
v 97.53665 133.50086 133.61045
v 105.36252 141.49431 152.32687
v 122.58854 124.13658 151.64359
v 134.41737 105.57284 155.04590
v 126.34061 113.81874 154.50135
v 96.89525 139.00568 139.57968
v 99.71175 129.22225 132.09070
v 97.13738 146.50846 144.86027
v 101.88197 130.41520 138.52049
v 109.67237 122.19359 139.41609
v 97.18470 123.60395 120.77267
v 103.85760 122.59929 131.53615
v 100.20886 121.69115 124.75636
v 104.63399 107.67640 115.63843
v 100.58624 112.39740 115.81965
v 120.86562 118.69742 152.21643
v 104.81808 125.24949 136.45364
v 134.60390 97.66804 156.83599
v 97.62252 133.20825 137.41077
v 97.20443 116.83112 116.70953
v 138.53354 97.54166 153.03846
v 106.58747 120.62087 134.24693
v 118.24676 113.22127 153.01596
v 113.10002 120.70859 144.82433
v 106.28391 105.95659 118.31023
v 107.11753 113.81696 131.68358
v 101.56297 113.63976 123.34959
v 107.06033 111.23606 126.91232
v 126.33849 105.55059 156.57756
v 112.73092 92.13748 109.98225
v 112.14687 113.02629 146.65365
v 108.47649 113.77386 139.73106
v 107.68070 105.72020 123.58533
v 104.44590 108.62772 121.72216
v 104.76115 100.45505 111.20108
v 105.24392 98.55558 113.16170
v 115.03923 114.71025 150.48937
v 107.02910 96.32149 115.17998
v 108.33338 97.63939 123.81931
v 107.35238 105.84998 131.91849
v 125.97279 97.75621 158.50416
v 134.92242 89.94727 157.38857
v 117.44359 105.59416 154.55483
v 110.87880 105.83108 147.69619
v 106.93012 97.57695 131.94957
v 108.74483 89.71665 123.74232
v 106.91275 105.90146 140.39120
v 117.46817 97.72547 156.48700
v 131.57473 88.10720 160.46527
v 125.03373 91.96654 159.65956
v 106.99299 97.79790 140.06060
v 107.06831 89.35155 131.62776
v 132.60674 80.83887 161.20897
v 110.32941 97.93285 148.12293
v 126.12588 88.40118 160.51797
v 113.36798 97.47479 152.66753
v 109.71967 81.79457 132.02287
v 116.89986 90.16265 157.22164
v 125.90115 80.65294 161.78428
v 110.76411 89.34411 148.42956
v 107.76082 89.50370 140.11960
v 112.67421 75.42281 131.62909
v 131.04288 77.62642 160.18497
v 113.19041 88.14940 153.15327
v 110.01201 81.87442 139.93991
v 112.94401 76.39254 139.22691
v 115.42681 80.84095 150.06635
v 111.66802 82.80186 147.03271
v 119.20384 81.12290 160.99168
v 113.45758 82.88646 155.68497
v 169.96462 150.03564 4.74233
v 169.55088 149.57508 15.40080
v 146.09295 173.95924 21.19602
v 169.81328 144.94170 32.12612
v 185.83140 173.26739 95.74584
v 185.87859 173.39578 96.03146
v 149.66184 129.77549 0.39247
v 142.08704 179.38964 51.72761
v 169.66117 125.75605 16.48510
v 133.67554 145.70212 0.59950
v 153.32409 173.55359 66.97040
v 114.35794 173.46156 11.66445
v 161.95584 141.50434 40.30233
v 162.39258 130.61171 32.86092
v 139.33322 182.99822 68.04589
v 114.06876 173.57264 18.81768
v 161.74405 149.56042 56.37057
v 143.90200 180.31647 75.79243
v 157.71377 161.70743 75.98708
v 153.69691 173.72995 79.96659
v 161.75104 152.97601 64.38892
v 153.57098 173.36017 85.61928
v 125.66134 137.77745 0.41651
v 153.47052 189.43018 104.32210
v 154.05908 181.98256 95.63184
v 146.12567 190.03072 95.62718
v 161.88757 125.33576 32.14247
v 153.51033 197.78055 119.47351
v 146.01774 181.92595 87.91073
v 136.96141 189.48866 88.43473
v 161.84856 190.12070 128.16703
v 105.84699 165.59604 9.02411
v 133.40548 189.81929 87.94713
v 161.88518 174.73065 110.87802
v 105.38191 165.91963 14.13115
v 104.81673 166.51054 20.41641
v 153.83564 133.40858 56.41417
v 116.18880 188.63985 89.34357
v 154.05393 109.19425 32.43245
v 114.63010 181.08984 75.09297
v 161.78280 174.57824 136.19887
v 161.67937 150.11749 104.02139
v 161.45981 144.07162 105.94234
v 115.05442 197.48642 104.46368
v 106.17702 173.46452 57.90880
v 113.92109 181.60261 80.67669
v 152.85283 181.21415 143.68135
v 105.53073 173.89329 63.58405
v 144.91747 109.99487 39.87414
v 145.37160 126.21288 69.03951
v 161.72246 141.59209 112.30136
v 125.90194 197.74477 136.00021
v 153.56919 169.60216 143.69887
v 145.56475 125.91075 72.49807
v 161.75496 153.73484 136.13236
v 105.95809 181.46906 88.58720
v 146.86300 124.23049 77.85161
v 112.96844 101.36779 6.40437
v 144.67401 118.95433 81.67545
v 90.24805 126.61159 9.38742
v 153.45712 118.11300 96.49716
v 96.59426 182.78564 102.15354
v 146.19223 117.11728 87.08326
v 96.83561 175.78596 94.92726
v 89.13050 124.90308 14.63275
v 136.71157 173.05390 151.76679
v 98.03365 110.46327 9.73045
v 122.28956 109.90920 47.33655
v 97.87269 165.14210 88.26221
v 114.82408 110.55751 39.36435
v 114.66969 118.67299 53.53651
v 97.53353 109.23268 14.84977
v 153.92944 141.65890 147.38274
v 105.48784 189.92498 136.32565
v 105.53504 117.24398 40.19950
v 146.28341 109.11657 95.44948
v 152.87130 126.77427 133.88149
v 82.18663 190.26027 111.63343
v 106.69214 101.92385 31.86798
v 98.31058 110.17966 31.59812
v 89.21417 190.00949 128.49786
v 89.54045 174.75800 111.39344
v 130.14395 109.68491 87.82190
v 146.06132 101.32561 103.51796
v 136.28466 134.59226 151.57775
v 130.00128 101.66616 95.97919
v 128.99222 101.59990 95.84085
v 81.19660 172.70558 120.35428
v 143.30841 94.29716 112.29180
v 145.64067 104.06761 129.76670
v 97.19364 132.56411 94.92936
v 123.64847 102.07558 96.32918
v 131.27754 132.82056 152.34361
v 145.65983 99.52612 128.68819
v 145.95117 92.31580 120.53201
v 81.54161 149.32037 105.96523
v 137.77510 85.57414 111.89543
v 145.85022 92.34595 136.72161
v 88.82764 149.64455 128.09964
v 137.81282 110.20887 152.09202
v 97.72407 133.80368 124.71651
v 104.73687 116.47690 128.85846
v 113.78755 93.83656 112.04355
v 120.11340 86.65470 160.23050
v 126.27126 77.43779 160.41879
v 113.75694 86.06753 151.75141
v 97.78743 157.55895 36.42630
v 97.74079 157.56709 72.84333
v 104.21746 182.00422 144.16808
v 115.36281 173.03311 151.58750
v 98.32988 155.48719 142.90725
v 97.46810 150.43034 144.60554
v 114.08885 108.12268 151.37444
v 113.50050 102.53521 152.03966
v 113.48167 77.44334 144.66350
f 10 15 11
f 17 13 18
f 84 82 83
f 90 76 101
f 111 90 101
f 207 232 200
f 172 187 250
f 272 293 274
f 389 388 378
f 427 443 442
f 461 453 433
f 463 475 461
f 469 487 465
f 488 487 469
f 512 550 556
f 541 565 556
f 608 607 592
f 606 601 603
f 167 654 115
f 196 194 221
f 181 178 662
f 319 220 282
f 699 697 268
f 702 675 701
f 698 697 699
f 700 719 699
f 723 738 751
f 795 398 387
f 435 801 827
f 778 801 435
f 827 801 778
f 839 816 838
f 840 405 411
f 885 884 883
f 881 869 843
f 896 850 871
f 461 474 453
f 934 939 927
f 943 482 477
f 464 484 491
f 476 942 506
f 966 983 536
f 987 951 533
f 520 536 574
f 992 1008 997
f 1003 557 990
f 1021 1012 998
f 576 555 581
f 1012 1021 1039
f 1072 1073 1071
f 1076 1069 1055
f 598 1080 1081
f 1070 1083 1084
f 1116 8 9
f 8 12 9
f 11 9 10
f 9 25 10
f 14 26 13
f 10 26 14
f 8 1116 23
f 23 1116 24
f 24 1116 9
f 22 16 11
f 16 9 11
f 16 24 9
f 17 20 14
f 14 20 13
f 14 13 17
f 22 11 15
f 15 14 20
f 14 15 10
f 27 8 23
f 27 19 8
f 8 19 12
f 19 58 8
f 8 58 12
f 12 25 9
f 17 18 38
f 24 16 23
f 38 18 21
f 12 34 25
f 20 17 31
f 31 17 30
f 15 20 33
f 38 21 28
f 33 20 31
f 29 22 15
f 16 22 32
f 32 22 29
f 29 15 33
f 1117 23 16
f 10 39 26
f 10 25 39
f 16 41 1117
f 32 41 16
f 36 23 1117
f 36 1117 41
f 13 51 18
f 26 51 13
f 38 17 28
f 18 54 35
f 18 35 21
f 46 23 36
f 46 27 23
f 47 30 17
f 17 28 47
f 21 35 28
f 30 47 1118
f 28 35 43
f 40 83 42
f 37 83 40
f 52 30 44
f 30 52 31
f 49 33 52
f 52 33 31
f 49 33 45
f 45 29 33
f 48 32 45
f 45 32 29
f 40 42 37
f 12 58 34
f 42 83 37
f 58 88 34
f 19 66 58
f 19 73 66
f 32 48 41
f 34 39 25
f 34 61 39
f 27 73 19
f 27 57 73
f 44 30 1118
f 64 41 48
f 44 1118 70
f 70 1118 68
f 68 1118 47
f 26 39 51
f 59 44 67
f 59 52 44
f 47 28 75
f 28 43 75
f 39 65 51
f 42 53 83
f 59 62 52
f 62 49 52
f 64 60 41
f 60 36 41
f 49 62 45
f 51 72 18
f 46 87 27
f 18 72 54
f 87 57 27
f 53 85 83
f 63 45 62
f 46 36 69
f 37 126 83
f 56 126 37
f 69 36 60
f 53 42 82
f 54 74 35
f 35 74 55
f 53 82 71
f 56 79 126
f 48 45 63
f 48 63 76
f 79 640 126
f 43 55 81
f 67 44 80
f 80 44 70
f 78 59 67
f 80 70 94
f 94 70 68
f 94 68 80
f 68 47 91
f 58 66 88
f 78 67 77
f 59 89 62
f 47 75 91
f 66 86 88
f 89 59 78
f 83 82 42
f 76 90 48
f 48 90 64
f 34 88 61
f 88 114 61
f 64 1119 60
f 39 61 65
f 79 56 1120
f 79 92 640
f 57 66 73
f 79 1120 92
f 77 67 80
f 90 1119 64
f 61 95 65
f 57 105 66
f 56 1121 1120
f 77 80 93
f 43 81 75
f 1119 90 60
f 60 90 64
f 51 65 106
f 51 106 72
f 56 126 641
f 56 641 1120
f 75 81 97
f 62 102 63
f 102 62 89
f 63 101 76
f 64 644 60
f 60 644 69
f 72 113 54
f 93 80 94
f 102 101 63
f 74 96 55
f 54 113 74
f 93 94 103
f 94 68 109
f 68 91 109
f 98 78 77
f 96 74 107
f 105 99 66
f 98 77 100
f 105 104 99
f 102 89 101
f 69 642 46
f 46 642 87
f 83 126 84
f 126 643 84
f 100 77 93
f 89 119 101
f 100 93 116
f 78 98 112
f 89 78 112
f 66 99 86
f 71 115 53
f 53 115 85
f 115 71 646
f 81 55 96
f 90 156 64
f 64 156 644
f 99 130 86
f 646 71 108
f 81 96 648
f 91 75 120
f 75 97 120
f 156 90 644
f 57 105 104
f 83 85 126
f 86 1122 88
f 85 131 126
f 88 1122 114
f 644 651 69
f 651 642 69
f 108 71 7
f 7 71 110
f 103 94 109
f 103 109 118
f 61 114 95
f 114 140 95
f 93 103 116
f 87 1124 123
f 87 123 57
f 57 123 105
f 105 123 104
f 1123 116 103
f 87 121 1124
f 1124 121 123
f 117 98 100
f 117 100 128
f 95 1125 65
f 65 1125 106
f 640 92 645
f 123 121 87
f 92 650 645
f 119 89 112
f 119 112 125
f 128 100 122
f 122 100 116
f 72 106 113
f 646 108 647
f 647 108 71
f 119 129 101
f 71 108 110
f 125 129 119
f 106 124 113
f 108 7 110
f 74 113 107
f 81 648 652
f 113 127 107
f 109 91 132
f 132 91 120
f 97 81 652
f 7 110 649
f 7 649 138
f 117 112 98
f 117 134 112
f 126 643 641
f 643 141 641
f 1123 103 137
f 115 131 85
f 131 115 654
f 122 116 144
f 144 116 1123
f 145 130 99
f 126 131 643
f 101 129 111
f 87 642 121
f 145 161 130
f 117 128 139
f 642 651 121
f 131 148 643
f 651 146 121
f 139 128 1126
f 1126 128 122
f 135 136 1123
f 1123 137 135
f 86 154 1122
f 130 154 86
f 1126 122 142
f 111 129 153
f 121 146 123
f 92 133 650
f 144 1123 136
f 96 107 1127
f 1122 140 114
f 654 167 131
f 131 167 148
f 643 148 141
f 133 163 650
f 149 144 136
f 653 97 120
f 97 652 120
f 648 96 1127
f 1122 158 140
f 138 7 147
f 7 172 147
f 7 110 172
f 110 196 172
f 148 162 141
f 112 134 125
f 120 652 653
f 115 646 167
f 641 141 650
f 641 650 92
f 134 155 125
f 149 136 135
f 118 109 151
f 109 132 151
f 140 193 1125
f 140 1125 95
f 92 650 163
f 92 163 133
f 149 135 169
f 117 150 134
f 646 7 108
f 117 139 150
f 106 182 124
f 106 1125 182
f 646 222 7
f 129 125 155
f 104 145 99
f 142 122 144
f 152 129 155
f 111 1128 156
f 111 156 90
f 156 651 644
f 113 124 127
f 168 145 104
f 142 144 165
f 1126 139 142
f 111 175 1128
f 156 1129 651
f 113 174 127
f 124 174 113
f 650 141 163
f 107 127 143
f 166 139 142
f 1128 175 156
f 7 196 110
f 166 142 160
f 111 171 175
f 156 175 157
f 159 163 141
f 127 176 143
f 222 108 7
f 222 646 108
f 7 172 196
f 165 144 149
f 165 149 1130
f 153 170 111
f 111 170 171
f 164 166 160
f 186 7 138
f 214 646 222
f 132 120 653
f 653 120 656
f 186 7 147
f 186 214 7
f 214 222 7
f 137 118 178
f 168 161 145
f 148 167 162
f 1130 149 173
f 168 202 161
f 186 147 198
f 173 149 169
f 152 153 129
f 648 1127 1131
f 130 161 154
f 152 1132 153
f 156 157 1129
f 167 663 162
f 157 233 1129
f 186 187 198
f 183 155 134
f 183 134 150
f 153 1132 170
f 123 177 104
f 161 218 154
f 184 170 1132
f 177 168 104
f 1133 160 165
f 160 142 165
f 155 184 152
f 152 184 1132
f 1131 1127 657
f 1122 154 158
f 158 154 216
f 655 214 222
f 166 1134 139
f 1134 150 139
f 655 222 646
f 140 180 193
f 7 186 172
f 160 1135 164
f 164 1135 166
f 155 1136 152
f 140 158 180
f 186 187 172
f 646 167 222
f 160 179 1135
f 183 1136 155
f 162 159 141
f 179 1137 217
f 179 217 1135
f 1133 1130 204
f 1133 165 1130
f 181 137 178
f 1125 193 1138
f 167 248 222
f 217 166 1135
f 151 132 659
f 1125 1138 182
f 162 199 159
f 1136 183 152
f 152 183 155
f 169 135 181
f 171 170 175
f 124 182 174
f 206 204 173
f 204 1130 173
f 169 181 189
f 170 213 175
f 222 186 7
f 127 174 176
f 174 182 243
f 646 222 248
f 646 248 167
f 1139 188 194
f 1139 192 188
f 192 1139 197
f 197 190 192
f 174 220 176
f 168 177 202
f 222 214 186
f 194 196 197
f 197 1139 194
f 190 195 192
f 177 226 202
f 172 196 221
f 190 1140 195
f 200 208 190
f 190 208 1140
f 1140 208 195
f 208 201 195
f 146 210 123
f 123 210 177
f 192 195 1141
f 192 1141 188
f 179 160 1133
f 179 1133 209
f 1129 1142 651
f 651 1142 146
f 197 200 190
f 150 215 183
f 652 1131 667
f 1129 233 665
f 1129 665 1142
f 197 207 200
f 188 1141 212
f 188 212 203
f 1141 195 212
f 195 211 212
f 163 159 185
f 215 150 1134
f 148 248 167
f 205 209 204
f 209 1133 204
f 159 266 185
f 653 652 667
f 155 183 184
f 666 653 667
f 1142 665 146
f 186 250 187
f 214 250 186
f 223 196 172
f 197 196 223
f 665 664 146
f 161 191 218
f 1143 172 221
f 167 162 248
f 241 1134 166
f 241 166 217
f 173 169 225
f 183 231 184
f 162 260 248
f 157 175 233
f 191 228 218
f 205 204 206
f 169 189 225
f 194 188 229
f 188 203 229
f 260 270 248
f 195 205 211
f 195 1144 205
f 195 179 1144
f 195 201 179
f 205 206 219
f 208 224 201
f 224 1137 201
f 201 1137 179
f 175 256 233
f 1144 179 205
f 218 227 154
f 154 227 216
f 179 209 205
f 224 217 1137
f 161 202 191
f 214 245 222
f 245 248 222
f 232 208 200
f 208 232 224
f 216 237 158
f 202 259 191
f 163 185 266
f 163 266 159
f 158 237 180
f 187 239 172
f 181 668 662
f 239 221 172
f 197 223 230
f 207 197 230
f 167 248 663
f 193 180 1138
f 187 234 186
f 248 270 663
f 180 254 1138
f 211 205 1145
f 210 238 177
f 177 238 226
f 186 234 1146
f 212 211 236
f 211 1145 236
f 656 666 669
f 170 184 213
f 182 1138 243
f 184 242 213
f 1138 273 243
f 189 668 246
f 668 181 246
f 1146 257 186
f 257 214 186
f 221 194 229
f 221 229 235
f 203 212 252
f 212 236 252
f 207 240 232
f 1145 1148 236
f 1145 219 1148
f 146 664 238
f 146 238 210
f 663 199 162
f 1148 219 236
f 1134 247 215
f 243 282 220
f 243 220 174
f 187 198 661
f 257 1146 234
f 206 173 258
f 173 225 258
f 247 1134 241
f 187 661 239
f 230 248 207
f 663 677 199
f 249 217 224
f 249 241 217
f 176 220 660
f 288 257 234
f 162 199 260
f 244 229 251
f 229 203 244
f 203 252 244
f 244 252 251
f 1149 207 248
f 220 285 660
f 251 252 674
f 207 1149 260
f 199 284 260
f 199 266 159
f 234 239 672
f 223 172 250
f 235 229 255
f 260 240 207
f 266 275 185
f 185 275 253
f 229 244 255
f 199 265 266
f 261 224 232
f 261 249 224
f 215 231 183
f 215 269 231
f 202 226 259
f 213 175 256
f 226 276 259
f 1149 248 260
f 659 656 680
f 213 286 256
f 259 262 191
f 191 262 228
f 664 665 687
f 664 687 238
f 260 232 240
f 189 246 225
f 687 665 238
f 218 228 227
f 663 295 677
f 260 264 232
f 225 246 673
f 228 310 227
f 239 221 235
f 257 277 214
f 277 245 214
f 248 245 270
f 270 295 663
f 219 206 258
f 239 235 263
f 216 227 237
f 263 235 268
f 268 235 255
f 223 250 278
f 245 279 270
f 264 271 232
f 271 261 232
f 227 304 237
f 255 244 251
f 223 278 230
f 1150 670 683
f 255 251 267
f 264 260 271
f 249 280 241
f 280 247 241
f 180 237 254
f 284 271 260
f 253 266 185
f 237 322 254
f 253 275 266
f 236 219 272
f 236 272 274
f 231 242 184
f 239 263 268
f 231 281 242
f 252 236 274
f 256 678 233
f 233 678 665
f 254 329 1138
f 1138 329 273
f 252 274 676
f 273 282 243
f 252 676 674
f 260 284 270
f 667 657 681
f 273 287 243
f 248 230 245
f 674 676 675
f 284 295 270
f 275 324 266
f 243 287 282
f 278 245 230
f 266 324 296
f 669 671 706
f 674 679 251
f 674 675 679
f 682 659 680
f 256 294 678
f 238 276 226
f 251 679 675
f 662 659 682
f 290 294 256
f 220 319 285
f 276 262 259
f 258 673 289
f 238 298 276
f 276 302 262
f 261 280 249
f 234 308 288
f 261 291 280
f 283 308 234
f 245 277 279
f 247 269 215
f 268 255 303
f 303 255 267
f 677 265 199
f 678 294 665
f 672 239 263
f 277 292 279
f 275 300 253
f 247 297 269
f 286 290 256
f 677 327 265
f 213 242 286
f 698 672 263
f 253 300 301
f 286 307 290
f 294 691 665
f 295 328 327
f 295 327 677
f 265 327 296
f 265 296 266
f 242 1152 286
f 299 313 228
f 228 313 310
f 234 672 688
f 288 277 257
f 267 251 686
f 271 291 261
f 305 277 288
f 686 251 679
f 1152 307 286
f 283 234 688
f 296 291 271
f 242 316 1152
f 1152 316 307
f 310 304 227
f 698 263 268
f 305 278 250
f 305 250 288
f 305 288 278
f 270 279 295
f 242 306 316
f 304 310 321
f 284 327 271
f 271 327 296
f 272 258 703
f 703 258 289
f 253 301 275
f 689 662 682
f 309 295 279
f 301 300 275
f 247 280 320
f 247 320 297
f 304 322 237
f 304 336 322
f 327 324 296
f 689 682 692
f 697 268 698
f 269 281 231
f 281 317 242
f 242 317 306
f 254 322 329
f 308 311 288
f 305 288 311
f 327 351 324
f 269 314 281
f 665 691 341
f 665 341 687
f 276 298 302
f 228 262 299
f 307 294 290
f 322 350 329
f 272 703 1153
f 298 318 302
f 273 329 332
f 273 332 287
f 262 312 299
f 274 293 694
f 293 272 1153
f 303 267 686
f 694 293 1153
f 680 706 682
f 307 355 294
f 700 303 686
f 269 326 314
f 238 687 298
f 682 706 712
f 314 326 317
f 314 317 281
f 287 705 282
f 676 274 694
f 275 300 324
f 282 705 319
f 676 694 695
f 269 325 326
f 687 1154 298
f 300 337 324
f 319 684 285
f 699 268 303
f 311 277 305
f 294 341 691
f 289 685 1155
f 291 331 280
f 684 319 709
f 675 702 679
f 292 309 279
f 675 676 701
f 676 695 701
f 331 320 280
f 279 330 315
f 294 343 341
f 687 341 356
f 687 356 1154
f 292 323 309
f 317 316 306
f 312 333 299
f 299 333 313
f 277 311 1156
f 1154 356 318
f 1154 318 298
f 337 275 324
f 337 300 275
f 316 317 345
f 296 327 291
f 269 314 325
f 302 312 262
f 715 698 699
f 297 334 314
f 297 314 269
f 325 314 326
f 302 335 312
f 310 344 321
f 310 313 344
f 1156 711 277
f 277 711 292
f 714 679 702
f 291 327 1157
f 712 706 707
f 311 348 1156
f 701 695 702
f 309 328 295
f 327 1158 291
f 1155 685 720
f 321 339 304
f 688 672 698
f 688 698 722
f 348 711 1156
f 309 340 328
f 291 1158 331
f 324 351 349
f 324 349 337
f 712 707 716
f 304 339 336
f 327 351 1158
f 334 326 314
f 720 685 708
f 322 338 350
f 336 338 322
f 328 346 327
f 695 1159 702
f 279 330 292
f 279 323 309
f 327 346 351
f 329 347 332
f 350 347 329
f 292 330 361
f 292 361 323
f 292 323 279
f 320 342 297
f 297 342 334
f 334 352 326
f 287 376 705
f 287 332 376
f 335 358 312
f 289 1155 1161
f 302 318 335
f 312 333 335
f 319 705 733
f 319 733 709
f 358 333 312
f 700 686 723
f 307 316 355
f 318 360 335
f 734 713 722
f 703 1161 726
f 1160 712 727
f 316 354 355
f 323 330 292
f 320 331 342
f 308 713 1162
f 1153 739 694
f 331 353 342
f 317 326 345
f 1162 311 308
f 730 694 739
f 1153 703 739
f 737 698 715
f 323 361 330
f 703 724 739
f 703 726 724
f 323 361 309
f 309 361 725
f 326 359 345
f 722 698 737
f 711 348 292
f 1159 695 741
f 695 729 741
f 309 725 340
f 348 330 292
f 702 1159 728
f 1159 741 728
f 340 725 362
f 1162 368 311
f 340 362 328
f 328 362 363
f 294 732 343
f 313 333 344
f 344 380 339
f 344 339 321
f 1162 748 368
f 355 354 357
f 355 357 294
f 294 357 732
f 333 364 344
f 713 1162 748
f 1158 353 331
f 1158 373 353
f 326 352 359
f 354 369 357
f 336 371 338
f 339 371 336
f 328 363 370
f 328 370 346
f 318 356 360
f 366 359 352
f 699 719 715
f 747 748 713
f 708 1163 744
f 357 375 732
f 343 732 341
f 356 377 360
f 350 381 347
f 350 338 381
f 714 702 738
f 335 360 367
f 335 367 358
f 732 1164 341
f 332 347 376
f 715 719 740
f 361 378 725
f 725 378 362
f 744 1163 742
f 1163 727 742
f 334 365 366
f 334 366 352
f 316 354 369
f 1164 746 341
f 341 746 356
f 378 361 362
f 347 769 376
f 730 739 729
f 330 372 361
f 334 342 365
f 345 354 316
f 376 392 705
f 705 392 733
f 348 372 330
f 342 6 365
f 732 746 1164
f 361 382 378
f 739 749 729
f 345 369 354
f 737 715 740
f 737 740 760
f 747 713 755
f 719 723 753
f 362 379 363
f 363 362 370
f 351 1158 373
f 345 374 369
f 368 348 311
f 379 370 362
f 345 1165 374
f 351 346 349
f 348 368 771
f 349 1158 351
f 1158 349 373
f 709 733 745
f 346 1166 349
f 353 5 342
f 342 5 6
f 370 1166 346
f 1166 386 349
f 349 386 373
f 733 757 745
f 370 386 1166
f 732 761 746
f 356 746 377
f 377 746 754
f 333 358 364
f 760 740 719
f 368 748 384
f 368 384 771
f 358 383 364
f 738 728 773
f 760 719 1167
f 747 755 748
f 360 377 367
f 755 770 748
f 377 754 367
f 339 380 371
f 771 1168 348
f 361 372 385
f 385 378 361
f 380 398 371
f 771 384 1168
f 338 371 381
f 365 6 366
f 371 397 381
f 6 390 366
f 359 1165 345
f 359 1169 1165
f 353 373 5
f 357 369 375
f 378 379 362
f 373 393 5
f 1169 374 1165
f 347 381 405
f 388 379 378
f 1169 395 374
f 347 405 769
f 719 753 763
f 1170 382 378
f 739 726 1171
f 726 720 767
f 720 750 767
f 1169 359 395
f 384 348 1168
f 385 1170 378
f 376 769 392
f 364 387 380
f 364 380 344
f 384 771 348
f 1172 395 359
f 369 391 375
f 392 769 785
f 726 776 1171
f 366 1172 359
f 755 734 752
f 385 382 1170
f 739 1171 764
f 1171 776 764
f 729 749 766
f 729 766 775
f 766 739 764
f 394 1172 366
f 732 406 761
f 406 412 761
f 379 386 370
f 375 404 732
f 732 404 406
f 761 412 783
f 761 783 746
f 392 757 733
f 358 367 383
f 378 382 389
f 379 403 386
f 392 777 757
f 367 396 383
f 788 372 348
f 378 382 385
f 389 382 388
f 771 788 348
f 390 402 366
f 760 763 774
f 366 402 394
f 382 378 388
f 373 386 393
f 384 788 771
f 390 6 402
f 386 401 393
f 6 400 402
f 781 738 773
f 384 794 788
f 385 409 378
f 378 409 388
f 773 741 796
f 741 778 796
f 5 400 6
f 746 783 791
f 746 791 754
f 784 752 760
f 399 400 5
f 364 383 387
f 383 413 387
f 375 391 404
f 754 396 367
f 398 397 371
f 775 801 778
f 369 374 391
f 754 791 396
f 391 415 404
f 381 397 411
f 381 411 405
f 748 770 384
f 380 387 398
f 770 804 384
f 393 399 5
f 393 407 399
f 374 408 391
f 769 405 785
f 1173 397 398
f 405 800 785
f 781 773 431
f 379 388 403
f 372 788 805
f 805 385 372
f 388 417 403
f 1172 394 395
f 394 1174 395
f 757 810 779
f 777 810 757
f 408 415 391
f 383 396 410
f 383 410 413
f 403 414 386
f 386 414 401
f 408 416 415
f 788 794 805
f 794 852 805
f 392 810 777
f 401 421 393
f 398 795 819
f 421 407 393
f 785 820 1175
f 819 1173 398
f 395 418 374
f 374 418 408
f 413 815 387
f 387 815 795
f 400 399 402
f 404 412 406
f 412 420 783
f 1173 819 851
f 1173 851 397
f 385 805 409
f 404 419 412
f 420 826 783
f 805 425 409
f 399 1176 402
f 826 818 783
f 783 818 791
f 804 824 384
f 384 824 794
f 388 409 417
f 791 818 396
f 396 818 410
f 804 857 824
f 830 794 824
f 419 422 412
f 412 422 420
f 409 429 417
f 399 428 1176
f 1176 424 402
f 424 423 402
f 394 426 1174
f 1174 426 395
f 395 426 418
f 428 424 1176
f 1178 426 394
f 766 813 850
f 766 850 1177
f 776 850 813
f 402 1178 394
f 404 419 422
f 820 1175 810
f 851 840 397
f 397 840 411
f 423 1178 402
f 418 433 408
f 408 433 416
f 820 1180 810
f 770 802 1181
f 770 1181 804
f 776 1179 850
f 407 427 399
f 399 427 428
f 401 414 854
f 854 421 401
f 404 842 422
f 824 833 830
f 796 435 434
f 413 410 815
f 403 417 414
f 410 849 815
f 437 414 417
f 415 842 404
f 776 829 1179
f 415 841 842
f 423 426 1178
f 815 843 795
f 802 1181 868
f 423 430 426
f 836 845 844
f 843 819 795
f 1181 868 804
f 804 868 857
f 870 852 794
f 802 867 868
f 830 870 794
f 822 859 861
f 421 427 407
f 844 859 822
f 421 439 427
f 422 842 420
f 420 848 855
f 420 855 826
f 420 842 1183
f 1183 853 420
f 420 853 848
f 826 855 818
f 1183 842 853
f 820 862 1180
f 820 874 862
f 416 841 415
f 842 865 853
f 818 860 849
f 818 849 410
f 819 843 869
f 819 869 851
f 918 425 805
f 918 805 852
f 848 853 855
f 837 1184 789
f 426 445 418
f 418 445 433
f 875 874 856
f 832 882 802
f 429 437 417
f 1179 858 850
f 869 881 851
f 851 881 840
f 802 882 867
f 853 865 879
f 853 879 866
f 1185 863 887
f 840 856 1182
f 870 918 852
f 870 452 918
f 409 425 429
f 429 436 437
f 865 879 1186
f 852 452 870
f 878 886 879
f 849 903 815
f 815 903 843
f 425 1188 429
f 837 888 1184
f 887 900 1185
f 1185 900 855
f 825 432 893
f 429 1188 438
f 830 897 870
f 1188 441 438
f 837 888 884
f 421 854 459
f 421 459 439
f 842 841 865
f 833 897 830
f 846 821 1189
f 846 1189 911
f 882 868 867
f 428 427 424
f 1187 909 856
f 882 910 868
f 416 433 448
f 892 899 1186
f 1186 899 879
f 911 917 825
f 433 453 448
f 868 915 857
f 840 881 1187
f 915 833 857
f 427 442 424
f 1190 902 887
f 1190 887 863
f 434 435 440
f 442 443 424
f 435 447 440
f 425 1188 441
f 443 444 424
f 855 900 860
f 427 446 443
f 900 901 860
f 414 922 854
f 424 444 1191
f 424 1191 423
f 860 901 849
f 437 922 414
f 437 1192 922
f 427 446 442
f 841 908 891
f 901 903 849
f 442 446 443
f 423 1191 430
f 891 908 892
f 448 908 841
f 425 918 1188
f 437 450 1192
f 1192 450 922
f 1191 449 430
f 890 920 898
f 843 916 881
f 918 441 1188
f 429 438 921
f 921 436 429
f 894 912 920
f 907 913 892
f 907 913 899
f 907 899 892
f 903 925 843
f 843 925 916
f 899 913 912
f 436 921 437
f 925 467 916
f 916 467 881
f 898 927 905
f 430 457 426
f 426 457 445
f 447 454 440
f 437 921 1192
f 444 460 1191
f 1191 460 449
f 901 900 903
f 440 454 1193
f 884 933 888
f 427 439 446
f 439 458 446
f 451 464 435
f 435 464 447
f 1193 456 936
f 888 932 871
f 918 452 441
f 454 456 1193
f 456 454 462
f 871 940 896
f 923 466 439
f 439 466 458
f 900 1194 903
f 909 468 875
f 445 461 433
f 452 943 441
f 898 920 927
f 458 466 446
f 465 927 934
f 912 465 934
f 881 467 468
f 881 468 909
f 917 455 938
f 448 472 908
f 449 463 430
f 430 463 457
f 907 469 913
f 908 471 907
f 472 471 908
f 870 897 470
f 466 443 446
f 907 471 469
f 902 928 904
f 870 470 452
f 902 904 1195
f 900 924 1194
f 1194 924 467
f 854 922 1
f 854 1 459
f 1194 467 903
f 467 925 903
f 915 868 910
f 454 447 462
f 447 485 462
f 1192 921 450
f 927 939 929
f 921 952 450
f 450 505 922
f 922 505 1
f 459 1 439
f 439 1 923
f 1 466 923
f 485 936 456
f 485 456 462
f 470 482 943
f 1 2 466
f 441 477 438
f 477 947 438
f 438 498 921
f 457 463 445
f 453 474 472
f 459 1 2
f 463 1198 445
f 441 943 477
f 933 950 932
f 949 499 500
f 934 953 939
f 445 463 461
f 466 479 443
f 479 480 443
f 443 1199 444
f 443 480 1199
f 1199 481 460
f 1199 460 444
f 475 492 461
f 472 486 471
f 474 486 472
f 947 496 498
f 455 476 451
f 451 476 942
f 449 460 463
f 471 486 488
f 471 488 469
f 451 942 484
f 451 484 464
f 465 953 934
f 476 484 942
f 483 493 462
f 462 493 478
f 462 478 473
f 1199 480 481
f 910 962 944
f 945 470 897
f 939 937 929
f 463 460 494
f 945 956 470
f 476 491 484
f 493 483 489
f 480 501 481
f 915 944 967
f 915 967 945
f 921 498 952
f 952 498 497
f 955 973 937
f 464 484 500
f 464 500 447
f 500 490 447
f 447 490 485
f 485 483 462
f 939 973 970
f 460 481 494
f 490 483 485
f 481 512 494
f 474 507 488
f 483 509 495
f 483 495 489
f 932 950 960
f 461 502 474
f 954 464 484
f 492 502 461
f 489 495 493
f 495 503 493
f 952 508 450
f 450 508 505
f 505 1 2
f 470 956 482
f 484 499 500
f 504 499 484
f 956 974 482
f 1 505 548
f 1 548 2
f 492 475 502
f 2 479 466
f 475 516 502
f 497 508 952
f 2 511 479
f 497 975 508
f 944 962 967
f 477 482 974
f 967 976 956
f 974 1200 477
f 490 514 483
f 500 514 490
f 499 514 500
f 483 514 509
f 496 984 498
f 494 512 463
f 506 513 476
f 491 476 513
f 498 984 497
f 495 509 510
f 477 1200 496
f 463 494 1201
f 491 504 484
f 1200 982 496
f 509 529 495
f 495 529 510
f 515 521 971
f 463 1201 475
f 491 513 504
f 495 510 503
f 502 519 474
f 512 517 494
f 494 517 1201
f 1201 1202 475
f 510 985 503
f 480 479 501
f 507 528 488
f 507 519 528
f 1201 517 1202
f 985 518 503
f 528 521 488
f 488 521 515
f 479 1204 501
f 504 520 499
f 985 986 518
f 1203 968 514
f 981 520 504
f 548 1205 2
f 2 1205 525
f 1206 973 970
f 1202 517 475
f 510 986 985
f 479 523 524
f 510 989 986
f 524 1204 479
f 1203 514 504
f 971 1206 973
f 475 517 1207
f 525 535 2
f 2 535 511
f 508 526 548
f 508 548 505
f 510 522 989
f 499 520 514
f 989 522 527
f 1200 974 982
f 520 532 514
f 514 532 509
f 532 529 509
f 501 537 481
f 481 537 512
f 974 1208 982
f 496 982 984
f 1002 522 529
f 529 522 510
f 982 560 984
f 989 986 985
f 531 541 501
f 501 531 537
f 525 1205 1209
f 534 522 1002
f 522 534 530
f 525 1209 535
f 1204 524 501
f 501 524 531
f 531 541 537
f 967 1000 976
f 497 984 975
f 989 510 985
f 984 549 975
f 529 534 1002
f 510 522 985
f 479 511 523
f 529 964 534
f 975 526 508
f 511 1210 523
f 1206 971 998
f 516 519 502
f 992 533 994
f 992 994 542
f 551 1205 548
f 547 539 542
f 532 520 529
f 520 964 529
f 526 975 999
f 538 540 530
f 530 540 522
f 1205 551 1209
f 475 1207 516
f 516 552 519
f 537 541 512
f 964 520 534
f 1207 553 516
f 536 534 520
f 519 521 528
f 510 522 1002
f 534 543 530
f 530 543 538
f 522 540 527
f 511 535 546
f 511 546 1210
f 540 545 527
f 519 558 521
f 547 996 539
f 996 547 542
f 517 554 1207
f 1207 554 553
f 991 1009 974
f 974 1009 1208
f 541 550 512
f 548 526 561
f 535 1209 551
f 1210 546 523
f 1208 1009 982
f 975 1004 999
f 534 536 555
f 534 555 543
f 561 551 548
f 1210 524 523
f 549 1004 975
f 546 524 1210
f 976 1000 991
f 982 1009 1011
f 983 557 536
f 557 555 536
f 524 546 523
f 540 543 1211
f 538 543 540
f 543 1211 1002
f 535 1209 588
f 512 556 517
f 543 567 538
f 543 569 567
f 1209 551 566
f 1209 566 588
f 1209 588 546
f 588 546 535
f 519 562 558
f 552 564 519
f 553 564 516
f 516 564 552
f 562 1005 558
f 564 563 519
f 541 556 550
f 560 568 984
f 984 568 549
f 519 563 562
f 1002 532 529
f 538 567 540
f 995 1014 1000
f 567 1019 540
f 526 582 561
f 1002 534 1017
f 582 526 999
f 546 573 524
f 573 570 524
f 982 1011 560
f 555 557 581
f 543 555 569
f 542 559 544
f 555 581 569
f 542 571 559
f 999 1004 582
f 576 581 557
f 531 524 570
f 1022 1021 998
f 991 1016 1011
f 991 1011 1009
f 582 1004 590
f 531 570 1212
f 560 1027 1023
f 1003 1020 576
f 1012 1020 1003
f 1015 572 1013
f 561 566 551
f 531 1212 541
f 570 583 1212
f 1212 583 577
f 1015 574 572
f 561 1213 566
f 1212 577 541
f 559 575 1015
f 1015 575 574
f 560 1023 1028
f 560 1028 568
f 1005 1029 1021
f 553 554 564
f 1006 578 571
f 581 576 569
f 582 586 561
f 561 586 1213
f 574 575 572
f 1000 1036 1016
f 571 578 559
f 559 578 575
f 575 1214 572
f 556 565 517
f 1000 1014 1036
f 554 580 564
f 568 1028 549
f 564 562 563
f 588 573 546
f 564 1044 562
f 569 584 579
f 567 569 579
f 588 596 573
f 517 565 554
f 1016 1036 1024
f 1032 1034 1038
f 565 587 554
f 1036 585 1024
f 549 1028 1215
f 565 591 587
f 566 1213 586
f 1018 1033 559
f 1215 1004 549
f 586 588 566
f 587 591 554
f 1215 1041 1004
f 562 595 1029
f 1011 1048 1027
f 1215 1028 1041
f 579 1040 567
f 567 1040 1019
f 1049 1041 1028
f 1216 1042 1025
f 569 581 584
f 1031 1014 585
f 1027 1050 1023
f 541 577 565
f 1023 1050 1028
f 577 592 565
f 590 611 582
f 582 611 586
f 562 594 595
f 1044 594 562
f 1014 1035 1047
f 1032 585 593
f 1033 1030 1051
f 1052 1046 1030
f 588 586 596
f 554 598 580
f 554 587 598
f 1014 1047 1036
f 585 599 593
f 1032 593 1034
f 586 602 596
f 573 597 570
f 570 597 583
f 598 589 580
f 580 589 564
f 1035 1037 599
f 1066 1004 1041
f 1004 1066 590
f 577 583 592
f 595 1029 1021
f 583 600 592
f 1027 1045 1061
f 1058 1052 1042
f 595 1065 1021
f 1060 1065 595
f 1034 1054 1062
f 1041 1049 1066
f 596 603 601
f 596 601 573
f 1049 1063 1066
f 583 597 606
f 1062 1057 1067
f 591 598 587
f 583 606 604
f 591 1075 598
f 1057 1054 1052
f 601 597 573
f 1028 1050 1049
f 611 602 586
f 1050 1074 1049
f 611 605 602
f 601 606 597
f 592 607 565
f 565 607 591
f 598 594 589
f 587 609 1218
f 587 1218 1083
f 587 1083 598
f 598 1080 594
f 609 1083 1218
f 1066 615 590
f 609 618 1083
f 590 615 611
f 1045 1082 1068
f 1078 1079 1070
f 1070 1079 1059
f 1083 618 598
f 600 608 592
f 583 604 600
f 1059 1079 1072
f 1072 1060 1059
f 600 610 583
f 618 1075 598
f 604 610 600
f 596 602 603
f 602 613 603
f 1063 1087 1066
f 1066 1087 615
f 1083 1081 598
f 603 612 606
f 1075 618 1083
f 607 608 609
f 607 609 591
f 606 610 604
f 606 614 610
f 1074 1063 1049
f 1063 1074 1086
f 615 605 611
f 1092 1077 1071
f 615 621 605
f 615 620 621
f 605 617 602
f 609 608 618
f 602 617 613
f 615 621 1087
f 615 1087 620
f 608 625 618
f 610 616 608
f 610 608 600
f 621 620 1087
f 621 620 623
f 621 623 605
f 613 619 603
f 603 619 612
f 610 614 622
f 610 622 616
f 613 617 624
f 605 624 617
f 617 624 619
f 624 619 613
f 612 614 606
f 605 623 624
f 612 626 614
f 1063 1086 1087
f 1087 1086 1095
f 608 622 627
f 1091 1097 1090
f 608 628 625
f 627 628 608
f 1087 1095 1094
f 1095 1100 1094
f 1094 1098 1087
f 1087 1098 620
f 619 629 612
f 612 629 626
f 620 624 623
f 620 630 624
f 627 622 628
f 626 622 614
f 622 633 628
f 626 631 622
f 1093 1103 1095
f 624 629 619
f 624 634 629
f 632 635 630
f 632 630 620
f 620 1098 630
f 633 1107 1102
f 622 631 633
f 1098 1108 630
f 629 631 626
f 631 1107 633
f 629 636 631
f 1100 1103 1219
f 630 635 634
f 630 634 624
f 1102 1106 1097
f 620 630 635
f 620 635 632
f 1098 1220 630
f 1098 1104 1220
f 1220 635 630
f 1100 1219 1104
f 634 637 629
f 629 637 636
f 1102 1111 1110
f 1221 1103 1109
f 1112 638 1221
f 1112 1105 1113
f 631 636 1111
f 632 635 638
f 1220 1104 635
f 635 639 634
f 634 639 637
f 1104 1114 635
f 635 1114 638
f 635 638 639
f 1112 637 639
f 639 638 1112
f 55 43 35
f 42 53 71
f 42 71 82
f 71 53 647
f 647 53 84
f 84 53 83
f 1120 641 92
f 643 126 640
f 643 640 645
f 647 84 643
f 643 148 647
f 643 645 141
f 141 645 650
f 137 103 118
f 646 647 148
f 167 646 148
f 1127 107 658
f 658 107 143
f 162 643 141
f 148 643 162
f 656 132 653
f 655 646 214
f 151 178 118
f 1131 652 648
f 657 1127 658
f 181 135 137
f 656 659 132
f 667 1131 657
f 661 198 147
f 661 147 1143
f 1143 147 172
f 662 178 151
f 662 151 659
f 1143 221 239
f 239 661 1143
f 1147 658 143
f 1147 143 660
f 660 143 176
f 219 1145 205
f 666 656 653
f 668 189 181
f 670 1147 660
f 658 1147 670
f 246 668 662
f 669 666 671
f 671 666 667
f 670 1150 658
f 234 187 239
f 689 246 662
f 271 159 266
f 284 199 159
f 271 266 296
f 284 159 271
f 680 656 669
f 1151 657 658
f 1151 658 1150
f 250 214 278
f 278 214 245
f 272 219 258
f 284 271 296
f 1151 1150 683
f 284 296 327
f 681 657 1151
f 258 225 673
f 680 669 706
f 673 246 685
f 689 685 246
f 696 671 667
f 681 696 667
f 681 1151 683
f 681 683 690
f 670 660 693
f 693 660 285
f 308 283 713
f 713 283 688
f 707 706 671
f 684 704 285
f 289 673 685
f 685 689 708
f 707 671 696
f 704 693 285
f 708 689 692
f 696 681 710
f 710 681 690
f 718 670 693
f 718 683 670
f 714 686 679
f 717 718 693
f 717 693 704
f 1160 692 682
f 1160 682 712
f 699 303 700
f 703 289 1161
f 721 696 710
f 713 688 722
f 723 686 714
f 731 683 718
f 1161 1155 726
f 721 707 696
f 720 726 1155
f 731 690 683
f 727 712 716
f 729 695 694
f 729 694 730
f 735 731 718
f 735 718 717
f 704 684 709
f 727 692 1160
f 736 704 709
f 708 692 1163
f 1163 692 727
f 735 690 731
f 743 716 707
f 743 707 721
f 738 702 728
f 710 690 759
f 759 690 731
f 759 731 735
f 1222 710 759
f 713 734 755
f 719 700 723
f 756 717 704
f 756 704 736
f 734 722 737
f 752 734 737
f 750 720 708
f 750 708 744
f 723 714 738
f 773 728 741
f 727 716 762
f 721 710 772
f 772 710 1222
f 780 736 709
f 780 709 745
f 739 724 726
f 750 744 758
f 762 716 743
f 765 735 717
f 765 717 756
f 758 744 742
f 768 772 1222
f 768 1222 759
f 779 780 745
f 740 719 763
f 757 780 745
f 779 780 757
f 766 749 739
f 767 776 726
f 755 752 787
f 778 741 729
f 778 729 775
f 760 740 763
f 779 780 736
f 759 735 786
f 793 743 721
f 793 721 772
f 786 735 765
f 742 727 762
f 751 738 781
f 763 723 751
f 789 750 758
f 742 727 790
f 790 742 762
f 763 753 723
f 763 751 782
f 789 767 750
f 756 736 780
f 799 780 736
f 752 737 760
f 782 751 781
f 792 793 772
f 799 780 779
f 756 780 799
f 792 772 768
f 799 797 756
f 766 801 775
f 802 770 755
f 802 755 787
f 787 752 784
f 803 787 784
f 798 743 793
f 798 762 743
f 806 768 759
f 806 759 786
f 431 773 796
f 765 756 809
f 758 742 808
f 808 742 790
f 798 793 792
f 809 756 797
f 766 764 776
f 807 798 792
f 809 797 811
f 811 797 799
f 766 776 813
f 810 392 1175
f 1175 392 785
f 829 776 767
f 829 767 789
f 784 760 774
f 790 762 798
f 784 774 812
f 774 763 821
f 821 763 782
f 816 790 798
f 806 792 768
f 817 792 806
f 809 811 799
f 814 786 809
f 809 786 765
f 797 809 799
f 831 799 779
f 831 779 810
f 782 781 825
f 825 781 431
f 822 786 814
f 823 799 831
f 801 766 827
f 838 816 798
f 822 806 786
f 823 797 799
f 807 838 798
f 828 809 797
f 820 785 856
f 800 856 785
f 827 766 1177
f 837 789 758
f 837 758 808
f 832 787 803
f 823 828 797
f 803 784 812
f 847 814 809
f 832 802 787
f 3 803 812
f 847 809 828
f 833 824 857
f 796 778 435
f 834 814 847
f 834 836 814
f 856 800 1182
f 1182 800 405
f 807 792 817
f 844 822 814
f 844 814 836
f 835 807 817
f 1179 829 858
f 1223 790 839
f 806 861 817
f 861 806 822
f 808 790 1223
f 839 790 816
f 845 836 834
f 1182 405 840
f 812 774 821
f 812 821 846
f 839 808 1223
f 839 883 808
f 1180 831 810
f 432 796 434
f 1180 862 831
f 431 796 432
f 818 855 860
f 862 823 831
f 841 416 448
f 827 1177 850
f 1185 855 853
f 874 823 862
f 829 789 1184
f 864 828 823
f 856 874 820
f 838 807 835
f 880 847 828
f 864 823 874
f 896 827 850
f 858 829 1184
f 837 808 884
f 872 838 835
f 876 835 859
f 859 835 817
f 861 859 817
f 864 880 828
f 845 859 844
f 863 853 866
f 1185 853 863
f 4 803 3
f 825 821 782
f 858 1184 888
f 877 876 859
f 886 859 845
f 4 832 803
f 850 858 871
f 884 808 883
f 856 840 1187
f 825 431 432
f 845 879 886
f 866 879 845
f 866 845 873
f 895 834 847
f 1189 821 825
f 889 872 835
f 876 889 835
f 895 847 880
f 886 877 859
f 890 877 886
f 873 845 834
f 911 1189 825
f 885 883 839
f 841 891 865
f 895 873 834
f 865 891 892
f 865 892 1186
f 3 812 846
f 914 3 846
f 894 890 886
f 878 894 886
f 863 866 873
f 856 909 875
f 889 876 877
f 898 889 877
f 863 873 1190
f 909 1187 881
f 899 894 878
f 879 899 878
f 902 1190 873
f 838 906 839
f 902 873 895
f 872 906 838
f 889 906 872
f 432 434 440
f 906 889 905
f 919 432 440
f 890 898 877
f 908 907 892
f 920 890 894
f 904 864 874
f 904 874 875
f 435 827 896
f 928 880 864
f 928 864 904
f 935 435 896
f 895 880 902
f 4 3 914
f 899 912 894
f 905 889 898
f 902 880 928
f 455 825 893
f 900 887 902
f 882 832 4
f 926 4 914
f 912 920 898
f 900 902 924
f 871 858 888
f 933 884 885
f 455 917 825
f 936 440 1193
f 885 839 937
f 937 839 906
f 937 906 929
f 929 906 905
f 468 904 875
f 930 882 4
f 929 937 885
f 882 930 931
f 934 927 920
f 912 934 920
f 453 472 448
f 910 882 931
f 911 917 938
f 913 465 912
f 935 451 435
f 469 465 913
f 467 924 902
f 467 902 1195
f 1196 893 432
f 1196 432 919
f 467 1195 904
f 467 904 468
f 897 833 915
f 942 451 935
f 927 929 905
f 944 915 910
f 945 897 915
f 931 930 4
f 914 846 911
f 941 893 1196
f 926 914 911
f 455 893 941
f 941 1196 919
f 464 941 919
f 931 4 1225
f 948 926 911
f 500 935 896
f 948 911 1224
f 1197 500 896
f 455 451 942
f 464 919 440
f 464 440 447
f 447 440 485
f 485 440 936
f 1197 896 940
f 949 1197 940
f 943 452 470
f 476 455 942
f 933 885 937
f 464 447 485
f 937 946 933
f 498 438 947
f 954 464 485
f 500 1197 949
f 960 940 871
f 932 960 871
f 932 888 933
f 1225 4 926
f 951 1225 926
f 961 948 911
f 496 947 477
f 931 1225 951
f 953 465 487
f 962 910 931
f 979 931 951
f 937 939 955
f 485 462 957
f 957 462 473
f 500 942 935
f 946 937 973
f 961 911 938
f 961 938 963
f 504 942 500
f 939 973 955
f 958 942 504
f 499 504 500
f 964 949 940
f 964 940 960
f 950 933 946
f 486 474 488
f 951 926 948
f 965 950 946
f 491 455 941
f 491 941 464
f 963 938 455
f 487 488 953
f 951 948 533
f 963 455 476
f 476 455 491
f 520 499 949
f 948 961 963
f 520 949 964
f 966 960 950
f 968 464 954
f 484 464 968
f 493 473 478
f 959 473 493
f 488 515 953
f 948 963 972
f 506 942 958
f 954 485 490
f 959 969 473
f 969 957 473
f 483 959 489
f 489 959 493
f 970 939 953
f 968 954 490
f 970 953 971
f 977 963 476
f 977 476 491
f 969 959 483
f 490 485 957
f 945 967 956
f 490 957 969
f 962 931 979
f 490 969 483
f 978 962 979
f 967 962 980
f 971 953 515
f 973 988 946
f 965 946 988
f 519 507 474
f 966 950 965
f 504 484 968
f 964 960 534
f 966 965 990
f 504 968 1203
f 534 960 966
f 534 966 536
f 514 968 490
f 1206 970 971
f 533 948 972
f 513 506 958
f 513 958 504
f 490 483 509
f 490 509 514
f 495 503 985
f 513 484 504
f 985 510 495
f 539 533 972
f 533 979 951
f 513 491 484
f 514 499 504
f 974 956 976
f 974 976 991
f 987 979 951
f 539 972 963
f 539 963 996
f 996 963 977
f 993 977 491
f 978 979 987
f 987 533 992
f 996 977 993
f 993 491 513
f 978 987 992
f 988 973 1206
f 998 988 1206
f 980 962 978
f 1000 967 980
f 520 499 532
f 532 499 514
f 997 978 992
f 980 978 995
f 983 966 990
f 1003 965 988
f 998 971 1007
f 547 533 539
f 542 533 547
f 994 533 542
f 1003 990 965
f 542 539 996
f 983 990 557
f 529 510 1002
f 1007 971 521
f 1007 521 1005
f 513 504 1001
f 981 1001 504
f 574 981 520
f 993 513 1006
f 1002 522 540
f 542 996 993
f 536 520 532
f 1211 1002 540
f 1012 1003 988
f 998 1012 988
f 995 978 1010
f 1010 978 997
f 542 993 1006
f 1016 991 1000
f 1006 513 1001
f 571 542 544
f 1226 994 542
f 536 532 1017
f 1008 992 994
f 1226 542 571
f 571 544 559
f 558 1005 521
f 1010 997 1008
f 1008 994 1226
f 1003 576 557
f 532 1002 1017
f 1000 980 995
f 1001 981 574
f 998 1007 1005
f 534 1002 543
f 1001 574 575
f 1013 559 1015
f 534 536 1017
f 1022 998 1005
f 559 1013 1018
f 555 536 543
f 543 536 534
f 574 536 555
f 1027 560 1011
f 574 555 572
f 1027 1011 1009
f 576 1013 557
f 1026 1011 1016
f 1025 1013 576
f 1026 1016 1024
f 1021 1022 1005
f 555 543 581
f 581 543 569
f 571 542 1006
f 1008 1226 571
f 578 1006 1001
f 578 1001 575
f 1024 585 1032
f 1013 572 555
f 557 1013 555
f 1008 571 1227
f 1026 1024 1038
f 1038 1024 1032
f 1014 995 1010
f 576 557 555
f 1030 1013 1025
f 1014 1010 1035
f 1013 1030 1018
f 576 1043 1025
f 1043 576 1020
f 1005 562 1029
f 571 559 1033
f 1010 1008 1037
f 1037 1008 1227
f 1036 1014 1031
f 585 1036 1031
f 1053 1227 571
f 1048 1011 1026
f 1026 1038 1034
f 1035 1010 1037
f 1053 571 1033
f 1042 1025 1043
f 1037 1227 1053
f 1026 1024 585
f 579 567 1019
f 1020 1012 1039
f 584 567 579
f 579 1019 1040
f 584 569 567
f 1036 585 1014
f 1045 1048 1026
f 1044 589 594
f 564 589 1044
f 1052 1025 1042
f 1033 1018 1030
f 1030 1025 1052
f 1027 1048 1045
f 1034 593 1054
f 1047 1035 599
f 599 1036 1047
f 585 1036 599
f 1045 1038 1069
f 1069 1038 1034
f 1026 1038 1045
f 1069 1034 1055
f 599 1037 1053
f 599 1053 1033
f 1058 1042 1043
f 1043 1020 1039
f 599 1033 1051
f 1043 1056 1058
f 1039 1056 1043
f 1039 1021 1065
f 593 599 1051
f 1057 1052 1058
f 1059 1060 595
f 1064 1051 1030
f 1064 1030 1046
f 1055 1034 1062
f 594 1059 595
f 1050 1027 1061
f 1067 1055 1062
f 1064 1046 1052
f 1054 1064 1052
f 1050 1061 1068
f 1057 1062 1054
f 1054 593 1051
f 1068 1061 1045
f 1054 1051 1064
f 1058 1056 1039
f 1067 1057 1071
f 1071 1057 1217
f 609 587 591
f 1057 1058 1072
f 1072 1058 1039
f 1072 1039 1065
f 1072 1217 1057
f 1071 1217 1072
f 1077 1055 1067
f 1060 1072 1065
f 1045 1069 1082
f 1071 1077 1067
f 1082 1069 1076
f 1076 1055 1077
f 1078 1073 1072
f 1085 1071 1073
f 1078 1072 1079
f 1085 1073 1078
f 1081 1059 594
f 1081 594 1080
f 1083 1070 1059
f 1083 1059 1081
f 1083 598 1075
f 1084 1078 1070
f 1074 1050 1068
f 1074 1068 1088
f 1092 1071 1085
f 1090 1085 1078
f 1084 1090 1078
f 1088 1068 1082
f 1089 1076 1077
f 1228 1082 1076
f 1091 1084 1083
f 1088 1082 1228
f 618 1091 1083
f 1228 1076 1089
f 1089 1077 1092
f 1086 1074 1088
f 1086 1088 1093
f 1088 1228 1089
f 1092 1085 1096
f 1096 1085 1090
f 622 608 616
f 1090 1084 1091
f 628 1091 618
f 628 618 625
f 1088 1089 1229
f 1093 1088 1089
f 1093 1089 1101
f 1101 1089 1099
f 1099 1089 1092
f 1096 1099 1092
f 1095 1086 1093
f 1106 1090 1097
f 1097 1091 628
f 1098 1094 1100
f 1098 1100 1104
f 1106 1096 1090
f 1097 628 1102
f 1105 1099 1096
f 1109 1101 1099
f 1106 1105 1096
f 633 1102 628
f 1100 1095 1103
f 1103 1093 1101
f 1109 1103 1101
f 1109 1099 1105
f 1110 1106 1102
f 1114 1104 1219
f 1111 1102 1107
f 1103 1109 1105
f 1221 1103 1105
f 1103 1221 638
f 1112 1221 1105
f 1110 1105 1106
f 631 1111 1107
f 1113 1105 1106
f 1109 1103 638
f 1113 1105 1110
f 1114 1219 1103
f 1114 1103 638
f 1109 638 1115
f 1112 1113 1230
f 637 1230 1113
f 1230 1113 1110
f 1111 1230 1110
f 1230 637 1112
f 637 1230 1111
f 636 637 1111
